<svg xmlns="http://www.w3.org/2000/svg"  viewBox="0 0 100 100" width="500px" height="500px"><path fill="#c7ede6" d="M87.215,56.71C88.35,54.555,89,52.105,89,49.5c0-6.621-4.159-12.257-10.001-14.478 C78.999,35.015,79,35.008,79,35c0-11.598-9.402-21-21-21c-9.784,0-17.981,6.701-20.313,15.757C36.211,29.272,34.638,29,33,29 c-7.692,0-14.023,5.793-14.89,13.252C12.906,43.353,9,47.969,9,53.5C9,59.851,14.149,65,20.5,65c0.177,0,0.352-0.012,0.526-0.022 C21.022,65.153,21,65.324,21,65.5C21,76.822,30.178,86,41.5,86c6.437,0,12.175-2.972,15.934-7.614C59.612,80.611,62.64,82,66,82 c4.65,0,8.674-2.65,10.666-6.518C77.718,75.817,78.837,76,80,76c6.075,0,11-4.925,11-11C91,61.689,89.53,58.727,87.215,56.71z"/><path fill="#fdfcef" d="M77.875,75.5c0,0,3.64,0,6.125,0s4.5-2.015,4.5-4.5c0-2.333-1.782-4.229-4.055-4.455 C84.467,66.364,84.5,66.187,84.5,66c0-2.485-2.015-4.5-4.5-4.5c-1.438,0-2.703,0.686-3.527,1.736 C76.333,60.6,74.171,58.5,71.5,58.5c-2.761,0-5,2.239-5,5c0,0.446,0.077,0.87,0.187,1.282C66.045,64.005,65.086,63.5,64,63.5 c-1.781,0-3.234,1.335-3.455,3.055C60.364,66.533,60.187,66.5,60,66.5c-2.485,0-4.5,2.015-4.5,4.5s2.015,4.5,4.5,4.5s9.5,0,9.5,0 h5.375V76h3V75.5z"/><path fill="#472b29" d="M71.5,58c-3.033,0-5.5,2.467-5.5,5.5c0,0.016,0,0.031,0,0.047C65.398,63.192,64.71,63,64,63 c-1.831,0-3.411,1.261-3.858,3.005C60.095,66.002,60.048,66,60,66c-2.757,0-5,2.243-5,5s2.243,5,5,5h14.875 c0.276,0,0.5-0.224,0.5-0.5s-0.224-0.5-0.5-0.5H60c-2.206,0-4-1.794-4-4s1.794-4,4-4c0.117,0,0.23,0.017,0.343,0.032l0.141,0.019 c0.021,0.003,0.041,0.004,0.062,0.004c0.246,0,0.462-0.185,0.495-0.437C61.232,65.125,62.504,64,64,64 c0.885,0,1.723,0.401,2.301,1.1c0.098,0.118,0.241,0.182,0.386,0.182c0.078,0,0.156-0.018,0.228-0.056 c0.209-0.107,0.314-0.346,0.254-0.573C67.054,64.218,67,63.852,67,63.5c0-2.481,2.019-4.5,4.5-4.5 c2.381,0,4.347,1.872,4.474,4.263c0.011,0.208,0.15,0.387,0.349,0.45c0.05,0.016,0.101,0.024,0.152,0.024 c0.15,0,0.296-0.069,0.392-0.192C77.638,62.563,78.779,62,80,62c2.206,0,4,1.794,4,4c0,0.117-0.017,0.23-0.032,0.343l-0.019,0.141 c-0.016,0.134,0.022,0.268,0.106,0.373c0.084,0.105,0.207,0.172,0.34,0.185C86.451,67.247,88,68.949,88,71c0,2.206-1.794,4-4,4 h-6.125c-0.276,0-0.5,0.224-0.5,0.5s0.224,0.5,0.5,0.5H84c2.757,0,5-2.243,5-5c0-2.397-1.689-4.413-4.003-4.877 C84.999,66.082,85,66.041,85,66c0-2.757-2.243-5-5-5c-1.176,0-2.293,0.416-3.183,1.164C76.219,59.76,74.055,58,71.5,58L71.5,58z"/><path fill="#472b29" d="M83.883,66.5c-1.326,0-2.508,0.897-2.874,2.182c-0.038,0.133,0.039,0.271,0.172,0.309 C81.205,68.997,81.228,69,81.25,69c0.109,0,0.209-0.072,0.24-0.182C81.795,67.748,82.779,67,83.883,67 c0.117,0,0.23,0.014,0.342,0.029c0.012,0.002,0.023,0.003,0.035,0.003c0.121,0,0.229-0.092,0.246-0.217 c0.019-0.137-0.077-0.263-0.214-0.281C84.158,66.516,84.022,66.5,83.883,66.5L83.883,66.5z"/><path fill="#fff" d="M15.405,51H5.5C5.224,51,5,50.776,5,50.5S5.224,50,5.5,50h9.905c0.276,0,0.5,0.224,0.5,0.5 S15.682,51,15.405,51z M18.5,51h-1c-0.276,0-0.5-0.224-0.5-0.5s0.224-0.5,0.5-0.5h1c0.276,0,0.5,0.224,0.5,0.5S18.777,51,18.5,51z M23.491,53H14.5c-0.276,0-0.5-0.224-0.5-0.5s0.224-0.5,0.5-0.5h8.991c0.276,0,0.5,0.224,0.5,0.5S23.767,53,23.491,53z M12.5,53h-1 c-0.276,0-0.5-0.224-0.5-0.5s0.224-0.5,0.5-0.5h1c0.276,0,0.5,0.224,0.5,0.5S12.777,53,12.5,53z M9.5,53h-2 C7.224,53,7,52.776,7,52.5S7.224,52,7.5,52h2c0.276,0,0.5,0.224,0.5,0.5S9.777,53,9.5,53z M15.5,55h-2c-0.276,0-0.5-0.224-0.5-0.5 s0.224-0.5,0.5-0.5h2c0.276,0,0.5,0.224,0.5,0.5S15.776,55,15.5,55z M18.5,46c-0.177,0-0.823,0-1,0c-0.276,0-0.5,0.224-0.5,0.5 s0.224,0.5,0.5,0.5c0.177,0,0.823,0,1,0c0.276,0,0.5-0.224,0.5-0.5S18.776,46,18.5,46z M18.5,48c-0.177,0-4.823,0-5,0 c-0.276,0-0.5,0.224-0.5,0.5s0.224,0.5,0.5,0.5c0.177,0,4.823,0,5,0c0.276,0,0.5-0.224,0.5-0.5S18.776,48,18.5,48z M23.5,50 c-0.177,0-2.823,0-3,0c-0.276,0-0.5,0.224-0.5,0.5s0.224,0.5,0.5,0.5c0.177,0,2.823,0,3,0c0.276,0,0.5-0.224,0.5-0.5 S23.776,50,23.5,50z M72.5,24h-10c-0.276,0-0.5-0.224-0.5-0.5s0.224-0.5,0.5-0.5h10c0.276,0,0.5,0.224,0.5,0.5S72.776,24,72.5,24z M76.5,24h-2c-0.276,0-0.5-0.224-0.5-0.5s0.224-0.5,0.5-0.5h2c0.276,0,0.5,0.224,0.5,0.5S76.776,24,76.5,24z M81.5,26h-10 c-0.276,0-0.5-0.224-0.5-0.5s0.224-0.5,0.5-0.5h10c0.276,0,0.5,0.224,0.5,0.5S81.777,26,81.5,26z M69.5,26h-1 c-0.276,0-0.5-0.224-0.5-0.5s0.224-0.5,0.5-0.5h1c0.276,0,0.5,0.224,0.5,0.5S69.776,26,69.5,26z M66.375,26H64.5 c-0.276,0-0.5-0.224-0.5-0.5s0.224-0.5,0.5-0.5h1.875c0.276,0,0.5,0.224,0.5,0.5S66.651,26,66.375,26z M75.5,22h-5 c-0.276,0-0.5-0.224-0.5-0.5s0.224-0.5,0.5-0.5h5c0.276,0,0.5,0.224,0.5,0.5S75.777,22,75.5,22z M72.5,28h-2 c-0.276,0-0.5-0.224-0.5-0.5s0.224-0.5,0.5-0.5h2c0.276,0,0.5,0.224,0.5,0.5S72.776,28,72.5,28z"/><path fill="#4a5397" d="M37,71.3c-4.025,0-7.3-3.274-7.3-7.3V36c0-4.025,3.274-7.3,7.3-7.3h28c4.025,0,7.3,3.274,7.3,7.3v28 c0,4.025-3.274,7.3-7.3,7.3H37z"/><path fill="#472b29" d="M65,29.4c3.639,0,6.6,2.961,6.6,6.6v28c0,3.639-2.961,6.6-6.6,6.6H37c-3.639,0-6.6-2.961-6.6-6.6V36 c0-3.639,2.961-6.6,6.6-6.6H65 M65,28H37c-4.418,0-8,3.582-8,8v28c0,4.418,3.582,8,8,8h28c4.418,0,8-3.582,8-8V36 C73,31.582,69.418,28,65,28L65,28z"/><path fill="#472b29" d="M52.5,68h-15c-2.481,0-4.5-2.019-4.5-4.5v-3c0-0.276,0.224-0.5,0.5-0.5s0.5,0.224,0.5,0.5v3 c0,1.93,1.57,3.5,3.5,3.5h15c0.276,0,0.5,0.224,0.5,0.5S52.776,68,52.5,68z"/><path fill="#472b29" d="M33.5,59c-0.276,0-0.5-0.224-0.5-0.5v-4.029c0-0.276,0.224-0.5,0.5-0.5s0.5,0.224,0.5,0.5V58.5 C34,58.776,33.776,59,33.5,59z"/><path fill="#472b29" d="M33.5,53c-0.276,0-0.5-0.224-0.5-0.5v-2c0-0.276,0.224-0.5,0.5-0.5s0.5,0.224,0.5,0.5v2 C34,52.776,33.776,53,33.5,53z"/><path fill="#472b29" d="M33.5,49c-0.276,0-0.5-0.224-0.5-0.5v-12c0-2.481,2.019-4.5,4.5-4.5h27c2.481,0,4.5,2.019,4.5,4.5v7 c0,0.276-0.224,0.5-0.5,0.5S68,43.776,68,43.5v-7c0-1.93-1.57-3.5-3.5-3.5h-27c-1.93,0-3.5,1.57-3.5,3.5v12 C34,48.776,33.776,49,33.5,49z"/><path fill="#472b29" d="M68.5,50c-0.276,0-0.5-0.224-0.5-0.5v-3c0-0.276,0.224-0.5,0.5-0.5s0.5,0.224,0.5,0.5v3 C69,49.776,68.776,50,68.5,50z"/><path fill="#472b29" d="M64.5,68h-9c-0.276,0-0.5-0.224-0.5-0.5s0.224-0.5,0.5-0.5h9c1.93,0,3.5-1.57,3.5-3.5v-11 c0-0.276,0.224-0.5,0.5-0.5s0.5,0.224,0.5,0.5v11C69,65.981,66.981,68,64.5,68z"/><path fill="#fdfcef" d="M41,34.5c1.933,0,3.5-1.567,3.5-3.5c0-1.781-1.335-3.234-3.055-3.455 C41.473,27.366,41.5,27.187,41.5,27c0-1.933-1.567-3.5-3.5-3.5c-1.032,0-1.95,0.455-2.59,1.165 c-0.384-1.808-1.987-3.165-3.91-3.165c-2.209,0-4,1.791-4,4c0,0.191,0.03,0.374,0.056,0.558C27.128,25.714,26.592,25.5,26,25.5 c-1.228,0-2.245,0.887-2.455,2.055C23.366,27.527,23.187,27.5,23,27.5c-1.933,0-3.5,1.567-3.5,3.5s1.567,3.5,3.5,3.5s7.5,0,7.5,0 S39.067,34.5,41,34.5z"/><path fill="#472b29" d="M39.25,30C39.112,30,39,29.888,39,29.75c0-1.223,0.995-2.218,2.218-2.218 c0.034,0.009,0.737-0.001,1.244,0.136c0.133,0.036,0.212,0.173,0.176,0.306c-0.036,0.134-0.173,0.213-0.306,0.176 c-0.444-0.12-1.1-0.12-1.113-0.118c-0.948,0-1.719,0.771-1.719,1.718C39.5,29.888,39.388,30,39.25,30z"/><path fill="#472b29" d="M41.996,27.142C41.999,27.095,42,27.048,42,27c0-2.206-1.794-4-4-4 c-0.845,0-1.667,0.276-2.347,0.774C34.966,22.127,33.331,21,31.5,21c-2.374,0-4.324,1.847-4.489,4.18 C26.689,25.061,26.349,25,26,25c-1.289,0-2.412,0.82-2.826,2.006C23.116,27.002,23.059,27,23,27c-2.206,0-4,1.794-4,4s1.794,4,4,4 h7h0.5H41c2.206,0,4-1.794,4-4C45,29.169,43.739,27.59,41.996,27.142z M41,34H30.5H30h-7c-1.654,0-3-1.346-3-3s1.346-3,3-3 c0.16,0,0.314,0.025,0.468,0.049c0.273,0.041,0.521-0.138,0.569-0.405C24.208,26.691,25.034,26,26,26 c0.449,0,0.878,0.155,1.243,0.448c0.16,0.128,0.377,0.112,0.556,0.01s0.271-0.337,0.242-0.54C28.021,25.78,28,25.643,28,25.5 c0-1.93,1.57-3.5,3.5-3.5c1.641,0,3.08,1.165,3.421,2.769c0.039,0.184,0.178,0.33,0.36,0.379c0.179,0.05,0.375-0.009,0.5-0.148 c0.581-0.645,1.369-1,2.219-1c1.654,0,3,1.346,3,3c0,0.16-0.025,0.314-0.048,0.468c-0.021,0.133,0.013,0.269,0.094,0.377 c0.081,0.108,0.202,0.178,0.336,0.196C42.875,28.232,44,29.504,44,31C44,32.654,42.654,34,41,34z"/><path fill="#a332f4" d="M48.941,57.318c-1.044,0-1.913-0.823-1.96-1.877c-0.031-0.691,0.049-1.365,0.229-1.95 c0.645-2.082,1.937-3.669,3.737-4.588c2.792-1.426,6.625-1.286,11.717,0.434c1.028,0.347,1.579,1.461,1.232,2.488 c-0.346,1.028-1.462,1.582-2.488,1.232c-4.959-1.673-7.454-1.281-8.674-0.658c-0.86,0.439-1.439,1.175-1.773,2.252 c-0.016,0.056-0.073,0.268-0.058,0.617c0.048,1.083-0.792,2-1.875,2.048C49,57.317,48.971,57.318,48.941,57.318z"/><path fill="#fdfcef" d="M43.66,61.525c-0.757,0-1.478-0.441-1.8-1.179c-2.453-5.626-1.918-12.805,1.301-17.457 c2.16-3.123,5.285-4.745,8.746-4.567c6.378,0.324,8.441,8.171,8.441,11.92c0,2.493-0.397,7.052-3.056,9.59 c-1.215,1.159-2.752,1.726-4.433,1.651c-3.865-0.181-5.756-3.259-5.877-6.042c-0.047-1.083,0.793-2,1.876-2.047 c1.082-0.035,2,0.793,2.047,1.876c0.022,0.515,0.243,2.202,2.138,2.29c0.626,0.024,1.095-0.146,1.538-0.568 c1.152-1.1,1.841-3.623,1.841-6.749c0-1.988-1.161-7.818-4.714-7.999c-2.676-0.12-4.357,1.492-5.318,2.88 c-2.447,3.537-2.838,9.279-0.931,13.653c0.433,0.994-0.021,2.151-1.014,2.585C44.188,61.473,43.921,61.525,43.66,61.525z"/><path fill="#472b29" d="M43.66,61.775c-0.88,0-1.677-0.521-2.03-1.328c-2.485-5.702-1.94-12.98,1.324-17.701 c2.213-3.198,5.422-4.845,8.965-4.674c6.558,0.333,8.679,8.343,8.679,12.17c0,2.532-0.407,7.168-3.134,9.77 c-1.262,1.203-2.86,1.787-4.616,1.721c-4.022-0.189-5.99-3.389-6.116-6.282c-0.053-1.219,0.896-2.254,2.115-2.307 c1.222-0.037,2.255,0.908,2.308,2.115c0.025,0.591,0.263,1.976,1.899,2.051c0.557,0.037,0.965-0.128,1.354-0.499 c1.104-1.054,1.764-3.509,1.764-6.568c0-1.928-1.103-7.578-4.477-7.749c-2.532-0.107-4.181,1.444-5.1,2.772 c-2.4,3.469-2.782,9.109-0.907,13.411c0.487,1.118-0.025,2.425-1.144,2.913C44.263,61.713,43.965,61.775,43.66,61.775z M51.389,38.559c-3.185,0-6.019,1.574-8.022,4.473c-3.173,4.585-3.698,11.664-1.277,17.216c0.367,0.84,1.408,1.258,2.255,0.884 c0.866-0.377,1.263-1.389,0.885-2.255c-1.938-4.449-1.537-10.293,0.954-13.896c0.991-1.432,2.768-3.103,5.535-2.987 c3.734,0.19,4.953,6.199,4.953,8.249c0,3.193-0.717,5.784-1.918,6.93c-0.489,0.467-1.008,0.656-1.721,0.638 c-1.676-0.078-2.326-1.357-2.378-2.529c-0.04-0.935-0.84-1.688-1.788-1.637c-0.455,0.02-0.877,0.216-1.187,0.554 c-0.309,0.337-0.469,0.774-0.448,1.231c0.116,2.673,1.931,5.63,5.639,5.804c1.62,0.087,3.088-0.476,4.248-1.582 c2.593-2.474,2.979-6.956,2.979-9.408c0-3.672-2.005-11.356-8.204-11.67C51.725,38.563,51.556,38.559,51.389,38.559z"/><path fill="#e23855" d="M43.66,61.525c-0.757,0-1.478-0.441-1.8-1.179c-2.453-5.626-1.918-12.805,1.301-17.457 c2.16-3.123,5.285-4.745,8.746-4.567c1.083,0.055,1.916,0.977,1.861,2.06c-0.055,1.082-0.98,1.918-2.06,1.861 c-2.676-0.12-4.357,1.492-5.318,2.88c-2.447,3.537-2.838,9.279-0.931,13.653c0.433,0.994-0.021,2.151-1.014,2.585 C44.188,61.473,43.921,61.525,43.66,61.525z"/><path fill="#472b29" d="M43.66,61.775c-0.88,0-1.677-0.521-2.03-1.328c-2.485-5.702-1.94-12.98,1.324-17.701 c2.213-3.198,5.422-4.845,8.965-4.674c0.591,0.03,1.134,0.288,1.53,0.727c0.396,0.438,0.598,1.005,0.567,1.596 c-0.03,0.592-0.289,1.136-0.729,1.533c-0.439,0.396-1.007,0.591-1.594,0.565c-2.572-0.116-4.18,1.444-5.099,2.772 c-2.4,3.469-2.782,9.109-0.907,13.411c0.487,1.118-0.025,2.425-1.144,2.913C44.263,61.713,43.965,61.775,43.66,61.775z M51.389,38.559c-3.185,0-6.019,1.574-8.022,4.473c-3.173,4.585-3.698,11.664-1.277,17.216c0.367,0.84,1.408,1.258,2.255,0.884 c0.866-0.377,1.263-1.389,0.885-2.255c-1.938-4.449-1.537-10.293,0.954-13.896c0.991-1.432,2.768-3.103,5.535-2.987 c0.455,0.026,0.895-0.131,1.234-0.437c0.341-0.308,0.542-0.729,0.564-1.188c0.023-0.457-0.132-0.896-0.438-1.235 c-0.307-0.339-0.728-0.539-1.185-0.562C51.725,38.563,51.556,38.559,51.389,38.559z"/><path fill="#a332f4" d="M50.948,48.903c2.792-1.426,6.625-1.286,11.717,0.434c1.028,0.347,1.579,1.461,1.232,2.488 c-0.346,1.028-1.462,1.582-2.488,1.232c-4.959-1.673-7.454-1.281-8.674-0.658C51.875,52.838,49.147,49.822,50.948,48.903z"/><path fill="#472b29" d="M46.731,55.451c-0.031-0.72,0.052-1.424,0.24-2.034c0.665-2.147,2-3.786,3.861-4.737 c2.861-1.458,6.756-1.32,11.911,0.42c0.561,0.189,1.014,0.585,1.275,1.115c0.263,0.529,0.303,1.13,0.114,1.69 c-0.189,0.562-0.587,1.015-1.118,1.277c-0.529,0.263-1.129,0.303-1.688,0.11c-4.874-1.643-7.302-1.273-8.479-0.671 c-0.796,0.406-1.335,1.094-1.648,2.103c-0.014,0.046-0.06,0.229-0.046,0.533l-0.5,0.021c-0.017-0.371,0.042-0.613,0.068-0.7 c0.355-1.147,0.977-1.932,1.898-2.402c1.263-0.646,3.825-1.058,8.867,0.643c0.432,0.146,0.896,0.119,1.306-0.085 c0.411-0.203,0.719-0.555,0.865-0.989c0.146-0.434,0.115-0.898-0.087-1.309c-0.203-0.41-0.555-0.717-0.988-0.862 c-5.021-1.697-8.788-1.844-11.523-0.449c-1.738,0.889-2.987,2.424-3.61,4.44c-0.173,0.556-0.248,1.2-0.219,1.864L46.731,55.451z"/></svg>