<svg xmlns="http://www.w3.org/2000/svg" version="1.1" viewBox="-5.0 -10.0 110.0 135.0" fill="#610BEF">
 <g>
  <path d="m55.305 65.273c0.36328-1.3945-0.53125-2.2109-1.6523-3.1367-0.60547-0.5-1.5312-0.18359-1.7109 0.57422-0.21094 0.91016-0.41016 2.0742-0.089844 2.4531 0.55859 0.68359 3.2383 0.94141 3.4531 0.10938z"/>
  <path d="m57.258 63.031c0.16797 0.41016 0.25781 0.84766 0.27344 1.332 0 0.0625 0.015625 0.10547 0.046875 0.16797 0.0625 0.089844 0.10547 0.18359 0.15234 0.25781 0.51562 0.72656 1.3477 1.168 2.2422 1.168h0.0625l14.969-0.28906c0.72656-0.015625 1.4102-0.31641 1.9258-0.83203 0.5-0.53125 0.77344-1.2109 0.75781-1.9531l-0.046875-2.332c-0.015625-1.1367-0.72656-2.1211-1.7891-2.5156-0.31641-0.12109-0.65234-0.18359-1-0.16797l-14.969 0.28906c-1.5156 0.03125-2.7109 1.2734-2.6836 2.7891l0.03125 1.9688c-0.003907 0.039063 0.011719 0.070313 0.027343 0.11719zm2.6211-4.1992 14.969-0.28906c0.25781 0 0.51562 0.03125 0.74219 0.12109 0.78906 0.28906 1.3164 1.0469 1.332 1.8789l0.046875 2.332c0.015625 0.54688-0.19531 1.0625-0.57422 1.4531-0.37891 0.39453-0.89453 0.62109-1.4375 0.62109l-14.969 0.28906c-0.68359 0.015625-1.3164-0.31641-1.7109-0.87891-0.03125-0.03125-0.046875-0.074219-0.074219-0.12109-0.015625-0.5-0.12109-0.98438-0.30469-1.4258l-0.03125-1.9102c-0.003907-1.1133 0.89062-2.0391 2.0117-2.0703z"/>
  <path d="m51.289 58.758c0.84766 0.51563 3.0156 0.65234 3.2109-0.10547 0.36328-1.3945-0.53125-2.2109-1.6523-3.1367-0.54688-0.4375-1.332-0.24219-1.6211 0.34766-0.03125 0.074219-0.0625 0.15234-0.089843 0.22656-0.21094 0.92578-0.41016 2.0742-0.089844 2.4531 0.058594 0.078125 0.13672 0.15234 0.24219 0.21484z"/>
  <path d="m51.152 52.438c0.78906 0.13672 1.6523 0.074219 1.9844-0.25781 0.0625-0.0625 0.10547-0.12109 0.12109-0.21094 0.046876-0.15234 0.0625-0.28906 0.074219-0.42578 0.10547-1.1523-0.72656-1.8945-1.7266-2.7109-0.16797-0.13672-0.34766-0.21094-0.53125-0.22656-0.51562-0.0625-1.0312 0.25781-1.168 0.81641-0.21094 0.91016-0.41016 2.0742-0.089844 2.4531 0.19922 0.27734 0.74609 0.47266 1.3359 0.5625z"/>
  <path d="m90.137 72.363-0.089844-0.22656v-0.015625c0-0.015625-0.015625-0.03125-0.015625-0.046875v-0.015625c-0.015625-0.046875-0.046875-0.089844-0.0625-0.13672 0-0.015625-0.015625-0.015625-0.015625-0.03125-0.33203-0.5625-0.98438-1-1.8945-1.2734l4.6523-26.062c0.46875-2.6367-1.2891-5.1523-3.9258-5.6211-0.28906-0.046875-0.57422-0.074219-0.86328-0.074219-1.168 0-2.2734 0.41016-3.1367 1.168l-0.30469-15.5c-0.046875-2.6055-1.1055-5.0312-2.9844-6.832-1.8789-1.8047-4.332-2.7734-6.9375-2.7109l-18.184 0.28906c-2.6055 0.046874-5.0312 1.1055-6.832 2.9844-1.8047 1.8789-2.7734 4.332-2.7109 6.9375l0.19531 10.105-2.3789-0.63672c-2.0742-0.54687-4.2109 0.60547-4.8633 2.6523-0.13672 0.41016-0.19531 0.81641-0.19531 1.2422 0 1.5156 0.83203 2.8945 2.1836 3.5742 0 0 0.015624 0 0.015624 0.015626l2.7734 1.2109c-1.5312 2.3633-1.5742 4.3945-1.332 5.668 0.19531 1.0312 0.80469 1.9531 1.6836 2.5312-0.089843 0.13672-0.16797 0.28906-0.22656 0.4375-0.69531 1.9531-0.86328 3.9375-0.4375 5.168 0.42578 1.2266 1.4844 2.168 2.7578 2.4531-0.54687 1.6211-0.65234 3.2422-0.30469 4.2734 0.18359 0.53125 0.51562 1.0156 0.9375 1.3945l0.074219 3.6055c-0.13672-1.0312-0.30469-1.8789-0.51562-2.332-0.36328-0.81641-1.2109-1.332-2.5625-1.6055-0.24219-3.7109-3.0312-6.8047-6.7109-7.3945-0.60547-0.15234-1.2266-0.24219-1.8477-0.25781-1.4531-0.03125-2.8633 0.34766-4.1211 1.0742 0.33203-1.7422 0.63672-3.4844 0.89453-5.2109 0.03125-0.16797-0.074218-0.31641-0.22656-0.37891-4.9375-1.6836-9.9844-3.0898-14.969-4.2109-0.089844-0.015625-0.19531 0-0.27344 0.0625-0.074218 0.0625-0.13672 0.15234-0.13672 0.24219-0.18359 1.5312-0.37891 3-0.60547 4.3945-0.03125 0.19531-0.0625 0.37891-0.089844 0.57422-1.4375-0.24219-2.8945-0.45312-4.332-0.63672-0.089844-0.015626-0.19531 0.015624-0.27344 0.074218-0.074218 0.0625-0.12109 0.15234-0.12109 0.25781-0.089844 3.1523-0.31641 6.3047-0.63672 9.3945-0.98438 0.13672-2.168 0.30469-2.7578 0.4375-0.03125 0-0.074219 0.015625-0.13672 0.015625-0.5 0.089844-2.1523 0.54688-2.3945 2.6953-0.17188 1.0195-0.94531 23.762 1.5859 28.945 0.13672 0.27344 0.41016 0.53125 0.83203 0.75781 2.7266 1.4375 11.695 1.9531 19.574 1.9531h1.1367c6.1953-0.046876 16.969-0.48438 18.09-1.9258 0.86328-1.1211 1.1211-6.2266 1.1953-10.316v-0.089844c0.0625-0.015625 0.089844-0.046875 0.10547-0.0625 0.65234-0.83203 0.84766-5.8164 0.66797-8.1211-0.046876-0.53125-0.41016-0.95312-0.91016-1.1211v-0.074219c-0.03125-0.74219-0.074219-1.8164-0.16797-2.9844 1.1367 4.1211 4.9258 7.1523 9.3789 7.1523h0.19531l4.1523-0.015625c-0.31641 1.1953-0.046875 1.9375 0.015625 2.0742l2.2891 6.5742 2.4375 7.2891c0.015626 0.0625 0.0625 0.12109 0.12109 0.16797 0.9375 0.69531 2.6367 1.0742 4.6836 1.0742 1.0742 0 2.2266-0.10547 3.4375-0.30469 3.5625-0.62109 12.605-3.1836 19.59-13.605 0.23828-0.34766-3.793-10.195-4.1719-11.09zm-46.258-7.5156c-0.42578-0.015625-0.84766-0.074218-1.2734-0.089844h-0.046875c-0.13672-1.1836-0.62109-2.2734-1.4102-3.1836-1.0312-1.2109-2.4844-1.9531-4.0625-2.0898-0.13672-0.015625-0.27344-0.015625-0.41016-0.015625-1.6953-0.03125-3.3477 0.65234-4.5156 1.8789-1.0312 1.0898-1.6211 2.5156-1.6523 4.0312v0.33203l-0.69531 0.074218c-0.19531 0.015625-0.39453 0.046875-0.58984 0.0625v-0.03125c0-0.15234-0.015625-0.30469 0-0.45312 0.03125-1.2266 0.36328-2.4375 0.96875-3.5 1.5-2.6055 4.5898-4.0742 7.5625-3.5898 1.168 0.19531 2.2734 0.66797 3.2266 1.3633 0.92578 0.69531 1.6836 1.6055 2.1953 2.6523 0.19531 0.39453 0.34766 0.81641 0.46875 1.2422 0.11328 0.40625 0.23438 0.87891 0.23438 1.3164zm-8.2109-0.15234c-0.015625-0.33203 0.19531-0.58984 0.62109-0.77344l0.03125 1.1523c-0.03125 0-0.046874 0-0.074218 0.015625-0.38281-0.058594-0.5625-0.19531-0.57812-0.39453zm1.9375 0.25781c-0.22656 0.015625-0.46875 0.046875-0.69531 0.0625l-0.03125-1.2109c0.12109 0 0.28906 0.015624 0.5 0.0625 0.21094 0.046874 0.37891 0.0625 0.45312 0.0625 0.19531 0 0.28906-0.10547 0.28906-0.28906 0-0.13672-0.18359-0.25781-0.53125-0.34766-0.27344-0.0625-0.5-0.089844-0.71094-0.089844h-0.015625l-0.015625-0.54688c0-0.18359-0.10547-0.27344-0.28906-0.27344-0.089844 0-0.15234 0.03125-0.21094 0.089844-0.0625 0.0625-0.074218 0.13672-0.074218 0.21094l0.015624 0.62109c-0.36328 0.12109-0.66797 0.30469-0.92578 0.5625-0.27344 0.27344-0.41016 0.54687-0.39453 0.84766 0 0.18359 0.0625 0.34766 0.16797 0.48438-0.78906 0.074219-1.5898 0.16797-2.4258 0.25781-0.48438 0.046875-0.98438 0.10547-1.4844 0.16797v-0.24219c0.03125-1.332 0.54688-2.6055 1.4688-3.5625 1.0469-1.0898 2.5-1.6953 4-1.668 0.12109 0 0.22656 0.015625 0.34766 0.015625 1.3945 0.12109 2.6836 0.78906 3.5898 1.8477 0.66797 0.78906 1.0898 1.7109 1.2266 2.7266-1.1484 0-2.5117 0.0625-4.2539 0.21094zm-10.453-8.9375c-0.68359-0.16797-1.3477-0.31641-2.0312-0.48438-0.03125-0.015625-0.074219-0.015625-0.10547-0.03125-0.65234-0.15234-1.3164-0.28906-1.9688-0.4375-0.0625-0.015625-0.12109-0.03125-0.16797-0.03125-0.63672-0.13672-1.2734-0.27344-1.9258-0.39453-0.074219-0.015625-0.15234-0.03125-0.21094-0.046875-0.62109-0.12109-1.2578-0.24219-1.8789-0.34766-0.046875-0.015626-0.10547-0.015626-0.15234-0.03125 0.5625 0.0625 1.1055-0.074219 1.5625-0.37891 0.48437-0.31641 0.81641-0.78906 0.98437-1.3633 2.2109 0.58984 4.4688 1.2422 6.6953 1.9531-0.074219 1.3047 0.65234 2.5898 1.7891 3.1367-0.22656 1.2109-0.46875 2.4375-0.72656 3.6523-0.015625 0.015624-0.015625 0.03125-0.03125 0.046874-0.0625 0.089844-0.12109 0.18359-0.16797 0.28906-0.65234 1.1836-1.0312 2.5156-1.0625 3.8789v0.5 0.046875c-0.37891 0.03125-0.77344 0.074219-1.1523 0.10547-0.046874 0-0.089843 0.015625-0.13672 0.015625 0.19531-1.4102 0.36328-2.832 0.5-4.2109 0.18359-1.832 0.34766-3.6836 0.45312-5.5 0.007812-0.17187-0.10156-0.32031-0.26562-0.36719zm-9.8789-2.6367c0.19531-1.2734 0.39453-2.6367 0.5625-4.0312 4.7422 1.0742 9.5469 2.4258 14.242 4.0156-0.28906 1.8477-0.60547 3.7109-0.96875 5.5625-0.41016 0.30469-0.77344 0.63672-1.1211 1 0.16797-0.84766 0.33203-1.6836 0.48438-2.5156 0.03125-0.16797-0.0625-0.33203-0.22656-0.39453-1.0469-0.36328-1.7578-1.6211-1.5742-2.7891 0.03125-0.16797-0.074219-0.33203-0.24219-0.37891-2.4375-0.78906-4.9258-1.5-7.3477-2.1367-0.089843-0.03125-0.19531-0.015626-0.27344 0.046874-0.074219 0.0625-0.13672 0.13672-0.15234 0.24219-0.074219 0.54688-0.34766 0.98438-0.77344 1.2578-0.39453 0.27344-0.89453 0.34766-1.3789 0.21094-0.089844-0.03125-0.19531 0-0.27344 0.046875-0.074219 0.0625-0.13672 0.13672-0.15234 0.24219-0.015625 0.12109-0.03125 0.22656-0.0625 0.34766-0.28906-0.046875-0.57422-0.10547-0.84766-0.15234 0.042969-0.19531 0.074219-0.37891 0.10547-0.57422zm-4.8203 0.55859c1.4258 0.19531 2.8477 0.41016 4.2734 0.63672 0.51563 0.089843 1.0156 0.18359 1.5312 0.27344 2.8047 0.5 5.6367 1.0898 8.4531 1.7734-0.10547 1.7109-0.25781 3.4531-0.4375 5.1836-0.15234 1.4258-0.31641 2.8789-0.51563 4.332-0.28906 0.03125-0.58984 0.046875-0.87891 0.074219 0.19531-1.4102 0.36328-2.832 0.51562-4.2422v-0.0625c0.03125-0.22656 0.046875-0.46875 0.074219-0.69531 0.015625-0.16797 0.03125-0.33203 0.046875-0.5 0.015625-0.16797-0.089844-0.31641-0.25781-0.36328-1.0625-0.27344-1.8477-1.4258-1.7734-2.5742 0.015625-0.16797-0.10547-0.31641-0.27344-0.36328-1.7422-0.39453-3.4844-0.74219-5.1953-1.0625-0.48438-0.089844-1-0.18359-1.5312-0.27344l-0.089844-0.015625c-0.18359-0.03125-0.36328-0.0625-0.54688-0.089844-0.089844-0.015625-0.19531 0.015625-0.27344 0.074219-0.074219 0.0625-0.12109 0.15234-0.13672 0.25781-0.027344 0.51562-0.25391 0.97266-0.63281 1.2734-0.36328 0.28906-0.83203 0.41016-1.3164 0.33203-0.089843-0.015625-0.19531 0.015625-0.27344 0.074219-0.074219 0.0625-0.12109 0.15234-0.13672 0.24219-0.10547 1.5742-0.24219 3.1836-0.42578 4.7734-0.12109 1.0898-0.25781 2.1836-0.41016 3.2734-0.074219 0-0.15234-0.015625-0.22656-0.015625-0.046875 0-0.074219-0.015625-0.12109-0.015625-0.15234-0.015625-0.31641-0.03125-0.45312-0.0625h-0.015625c0.12109-0.9375 0.24219-1.8789 0.34766-2.8164 0.015624-0.046875 0.03125-0.089844 0.03125-0.13672v-0.0625c0.33203-3.0234 0.54297-6.1133 0.64844-9.2227zm11.184 12.367c-0.57422 0.03125-1.1523 0.074218-1.7266 0.10547-0.42578-1.3633-1.5156-2.4844-2.8633-2.8945-0.10547-0.03125-0.22656-0.0625-0.33203-0.089844-0.87891-0.19531-1.7422-0.089843-2.5 0.30469-1.0312 0.53125-1.7266 1.5156-1.8789 2.6953-0.015626 0.089844-1.3789-0.12109-1.3789-0.089843 0.15234-1.0742 0.27344-2.168 0.39453-3.2578 0.16797-1.4844 0.28906-2.9844 0.39453-4.4531 0.54688 0.015625 1.0625-0.16797 1.4844-0.51562 0.4375-0.34766 0.72656-0.84766 0.84766-1.4102 0.0625 0.015625 0.12109 0.015625 0.18359 0.03125l0.089843 0.015625c0.53125 0.089844 1.0312 0.18359 1.5312 0.27344 1.6211 0.30469 3.2578 0.63672 4.9102 1 0.03125 1.2734 0.86328 2.4688 2.0156 2.9102 0 0.074218-0.015625 0.15234-0.015625 0.22656-0.015625 0.22656-0.046875 0.45312-0.074219 0.69531v0.0625c-0.10547 1.0898-0.24219 2.168-0.37891 3.2578-0.03125 0.27344-0.074219 0.53125-0.10547 0.80469-0.046875 0.34766-0.10547 0.30469-0.4375 0.33203-0.070313-0.003906-0.11328-0.003906-0.16016-0.003906zm-2.4531 0.13281c-0.13672 0-0.25781 0.015625-0.37891 0.015625h-0.074219c-0.12109 0-0.22656 0.015625-0.34766 0.015625h-0.074218c-0.10547 0-0.22656 0-0.33203 0.015625h-0.046874c-0.10547 0-0.22656 0-0.33203 0.015625h-0.03125-0.03125c-0.18359-0.39453-0.46875-0.65234-0.86328-0.74219-0.28906-0.0625-0.51562-0.015624-0.68359 0.16797-0.16797 0.18359-0.27344 0.37891-0.30469 0.60547h-0.13672c-0.18359-0.074219-0.36328-0.15234-0.54688-0.21094 0.015625-0.089843 0.046875-0.18359 0.089844-0.28906 0.046875-0.10547 0.074218-0.21094 0.089844-0.28906 0.015624-0.089844-0.015626-0.19531-0.074219-0.27344-0.0625-0.089844-0.13672-0.13672-0.21094-0.16797-0.089843-0.015625-0.19531 0.0625-0.28906 0.24219-0.10547 0.18359-0.16797 0.36328-0.19531 0.53125-0.10547-0.046875-0.19531-0.074219-0.30469-0.12109-0.12109-0.046875-0.21094-0.03125-0.25781 0.03125-0.015625 0.03125-0.03125 0.0625-0.03125 0.10547v0.03125c-0.015625 0.15234 0.0625 0.25781 0.22656 0.31641 0.0625 0.03125 0.12109 0.046875 0.18359 0.074219-0.18359 0-0.36328-0.015625-0.54687-0.015625-0.21094 0-0.42578-0.015625-0.63672-0.03125 0.13672-0.92578 0.68359-1.6953 1.5-2.1211 0.62109-0.31641 1.3164-0.39453 2.0469-0.24219 0.089844 0.015626 0.18359 0.046876 0.27344 0.074219 1.0742 0.33203 1.9531 1.1953 2.3477 2.2734l-0.027344-0.011719zm-2.3789 0.078125h-0.42578c0.074219-0.074219 0.16797-0.089844 0.28906-0.0625 0.042969 0 0.089843 0.03125 0.13672 0.0625zm-10.352-2.4102 0.046875-0.03125 0.015625-0.015625c0.015625-0.015625 0.03125-0.015625 0.046875-0.03125 0.45312-0.10156 1.3008-0.23828 2.5-0.39062-0.089844 0.81641-0.19531 1.6367-0.30469 2.4531-2.5-0.39453-2.832-0.96875-2.8789-1.1367-0.074218-0.26953 0.25781-0.60547 0.57422-0.84766zm38.121 31.273c-0.58984 0.75781-7.3164 1.5898-17.547 1.6523-10.117 0.058594-18.117-0.66797-20.375-1.8633-0.36328-0.19531-0.5-0.34766-0.54688-0.4375-2.332-4.7891-1.7734-26.832-1.5742-28.562 0.074219-0.71094 0.34766-1.1836 0.66797-1.4844-0.03125 0.15234-0.03125 0.30469 0 0.45312 0.19531 0.83203 1.4102 1.3633 3.8047 1.7109 3.2578 0.45312 6.6055 0.42578 9.9102 0.30469 3.4102-0.12109 6.8047-0.41016 10.195-0.77344 1.6953-0.18359 3.3945-0.37891 5.0898-0.57422 1.5-0.18359 3.0156-0.27344 4.5312-0.31641 0.5-0.015625 1-0.015625 1.5156-0.015625 0.74219 0.015625 1.4102 0.0625 1.9531 0.15234 1.2734 0.21094 2.0312 0.62109 2.3164 1.2578 0.39453 0.87891 0.77344 4.2422 0.96875 8.7891h-0.12109-0.25781c-3.168-0.046875-13.727-0.12109-16.547 1.1523-1.3164 0.58984-2.2422 1.7578-2.6367 3.3047-0.39453 1.5625-0.12109 3.2422 0.66797 4.2734 0.74219 0.95312 1.8945 1.0742 3.0156 1.2422 1.3164 0.19531 2.6367 0.28906 3.9531 0.34766 2.0312 0.10547 4.0625 0.15234 6.0898 0.13672 1.9531 0 3.9375 0 5.8633-0.21094h0.046875 0.015625c-0.058594 5.2188-0.45312 8.75-1 9.4609zm-11.285-14.062c0 1-0.86328 1.8164-1.9102 1.8164-1.0625 0-1.9102-0.81641-1.9102-1.8164s0.86328-1.8047 1.9102-1.8047c1.0469 0.003906 1.9102 0.80469 1.9102 1.8047zm56.605-3.0742c-1.0312 2.7734-4.9102 5.6211-10.426 7.6523-5.4844 2.0156-11.758 2.9258-16.816 2.4688l-1.9688-5.6836c0.0625 0.015624 0.12109 0.046874 0.18359 0.0625 2.0156 0.69531 4.168 1.0156 6.3047 1.0156 5.5 0 11.637-2.0469 16.137-5.4844 0.81641-0.68359 1.5469-1.3164 2.168-1.9102 0.53125-0.5625 1-1.1211 1.3789-1.6836 0.36328-0.54688 0.65234-1.0742 0.84766-1.5898 0.43359 1.0312 1.2344 2.9102 2.1914 5.1523zm-7.1055-37.273c0.78906-0.91016 1.9258-1.4258 3.1211-1.4258 0.24219 0 0.5 0.015625 0.74219 0.0625 2.2578 0.41016 3.7578 2.5625 3.3633 4.8164l-4.6836 26.289c-0.015625 0.046874-0.03125 0.10547-0.03125 0.15234l-0.03125 0.19531c-0.015625 0.046875 0 0.10547 0.015625 0.15234l0.91016 3.1836c-0.34766 0.48438-0.74219 0.98438-1.1953 1.4531-0.58984 0.5625-1.3047 1.1953-2.1055 1.8633-1.5156 1.2578-3.3789 2.2109-5.168 3-2.1953 0.96875-4.5 1.6836-6.8789 2.0469-2.9258 0.45313-5.9844 0.39453-8.8477-0.42578l-0.83203-2.2578 12.652-0.24219c4.3945-0.089843 8.2109-3.1211 9.2734-7.3945 0.03125-0.10547 0.046875-0.21094 0.074219-0.30469 0.13672-0.62109 0.19531-1.2578 0.21094-1.9102v-0.31641zm-44.547-2.4062c0-0.34766 0.0625-0.69531 0.16797-1.0312 0.54688-1.6836 2.3164-2.6523 4.0312-2.1953l2.5742 0.68359 0.15234 7.7578h-0.015625c-0.074219-0.03125-5.1211-2.2578-5.1211-2.2578-1.1055-0.58203-1.7891-1.7148-1.7891-2.957zm3.6211 10.348c-0.31641-1.7109 0.12109-3.4844 1.3047-5.2734 0.046875 0.015625 2.6367 1.2109 2.8477 1.3164s2.1836 1.1836 2.8164 1.5898c1.7109 1.0898 2.7578 2.1055 3.0156 2.9102 0.15234 0.45312 0.22656 0.9375 0.24219 1.4258 0.015625 0.68359-0.089844 1.3789-0.33203 2.0898-0.089843 0.28906-0.30469 0.54688-0.57422 0.69531-0.089844 0.046876-0.18359 0.089844-0.27344 0.12109-0.30469 0.089844-0.60547 0.074219-0.91016-0.046875l-0.16797-0.0625c-0.16797-0.074219-5.4375-2.1836-5.9102-2.3477-0.13672-0.046875-0.25781-0.10547-0.37891-0.16797-0.85938-0.43359-1.4961-1.2812-1.6797-2.25zm12.805 15.832c-0.015625-0.63672-0.13672-1.2578-0.37891-1.8047-0.046874-0.10547-0.089843-0.21094-0.15234-0.33203-0.27344-0.53125-0.81641-1.0742-1.668-1.6523 0.5625-0.25781 1-0.78906 1.1055-1.4375 0.24219-1.3789 0.0625-2.6953-0.5-3.8047-0.12109-0.24219-0.30469-0.48438-0.53125-0.74219h0.046875 0.015625l26.074-0.31641c0.48437 0 0.92578-0.18359 1.2734-0.51562 0.12109-0.12109 0.21094-0.24219 0.30469-0.37891l0.28906 13.363c0.015625 0.75781-0.12109 1.4688-0.41016 2.1523-0.24219 0.57422-0.60547 1.1055-1.0469 1.5742-0.96875 1.0156-2.2734 1.5742-3.668 1.6055l-20.273 0.39453c-0.22656 0-0.46875 0-0.71094-0.03125-2.5742-0.30469-4.5742-2.4844-4.6211-5.1055l-0.011718-1.043c1.1523 0.27344 2.2266 0.53125 2.668 0.63672 0.13672 0.03125 0.27344 0.046874 0.41016 0.046874 0.33203 0 0.66797-0.089843 0.95313-0.28906 0.41016-0.27344 0.66797-0.66797 0.75781-1.1523 0.058594-0.39453 0.089844-0.78906 0.074219-1.168zm-2.6367-10.863c0.24219-0.28906 0.39453-0.66797 0.5-1.0156 0.15234-0.51562 0.22656-1.0742 0.25781-1.6055v-0.046874l25.879-0.31641c0.18359 0 0.37891 0.046875 0.54688 0.12109 0.36328 0.18359 0.57422 0.51562 0.58984 0.89453l0.015624 1c0 0.27344-0.10547 0.53125-0.31641 0.72656-0.21094 0.19531-0.5 0.31641-0.80469 0.31641l-26.062 0.31641c-0.25781 0.015625-0.5625-0.074219-0.74219-0.25781 0.042969-0.027344 0.089844-0.074219 0.13672-0.13281zm18.5-28.062c-0.015625 0.4375-0.074219 0.87891-0.21094 1.2891-0.5 1.6523-1.832 2.9258-3.5156 3.332-1.1055 0.27344-2.3047 0.13672-3.332-0.37891-0.015625 0-0.015625-0.015625-0.03125-0.015625-0.96875-0.5-1.7578-1.3164-2.2109-2.3164-0.37891-0.81641-0.51562-1.7422-0.41016-2.6367v-0.03125c0.24219-1.8633 1.5312-3.3945 3.2578-3.9844 0.015625 0 0.03125-0.015625 0.0625-0.015625 0.74219-0.24219 1.5312-0.30469 2.3047-0.18359 2.3867 0.41406 4.1445 2.5195 4.0859 4.9414zm-9.3789 3.9414c0.65234 0.68359 1.4531 1.168 2.3164 1.4375h-3.6211c-0.18359 0-0.36328 0.074219-0.48438 0.19531-0.12109 0.12109-0.19531 0.28906-0.19531 0.48438 0 0.37891 0.30469 0.68359 0.68359 0.68359h11.09c0.37891 0 0.68359-0.30469 0.68359-0.68359s-0.30469-0.68359-0.68359-0.68359h-3.0742c-0.37891 0-0.80469 0.046875-1.1836-0.015625 0.16797 0.03125 0.46875-0.10547 0.63672-0.16797 0.21094-0.074218 0.42578-0.15234 0.63672-0.25781 0.41016-0.19531 0.80469-0.4375 1.1523-0.72656 0.71094-0.5625 1.3047-1.3047 1.6523-2.1367 0.03125-0.0625 0.046875-0.12109 0.074219-0.19531l7.6836 4.3047 0.015625 0.015625c0.21094 0.089843 0.33203 0.28906 0.33203 0.5l0.03125 2.0156c0 0.15234-0.0625 0.28906-0.16797 0.39453-0.12109 0.10547-0.27344 0.18359-0.4375 0.18359l-25.758 0.31641h-0.015625c-0.30469 0-0.54688-0.19531-0.60547-0.45312 0-0.03125-0.015624-0.0625-0.015624-0.10547l-0.03125-2.0156c0-0.21094 0.12109-0.39453 0.33203-0.5l7.7734-4.3633c0.30078 0.65234 0.67969 1.2578 1.1797 1.7734zm12.785 18.605-0.13672-10.453 2.7461-0.03125 0.13672 10.453zm-1.6641-11.395c0 0.34766 0.30469 0.62109 0.66797 0.60547h0.16797l0.13672 11.152h-0.16797c-0.36328 0-0.65234 0.28906-0.65234 0.63672l0.015625 0.92578-3.8164 0.046876-0.015625-1.0469c0-0.34766-0.30469-0.62109-0.66797-0.60547h-0.16797l-0.13672-11.152h0.16797c0.36328 0 0.65234-0.28906 0.65234-0.63672l-0.015625-0.98438 3.8164-0.046875zm-5.3359 0.91016 0.13672 10.453-2.7422 0.03125-0.13672-10.453zm-10.059 0.24219 0.13672 10.453-2.7422 0.03125-0.13672-10.453zm1.6523 11.41c0-0.34766-0.30469-0.62109-0.66797-0.62109h-0.16797l-0.13672-11.152h0.16797c0.36328 0 0.65234-0.28906 0.65234-0.63672l-0.015625-1.0898 4.2891-0.0625 0.015625 0.98438c0 0.34766 0.30469 0.62109 0.66797 0.60547h0.16797l0.13672 11.152h-0.16797c-0.36328 0-0.66797 0.28906-0.65234 0.63672l0.015626 1.0469-4.2891 0.0625zm20.984 0.86328c-0.27344-0.13672-0.5625-0.19531-0.86328-0.19531h-0.42578l-0.015624-0.92578c0-0.34766-0.30469-0.62109-0.66797-0.60547h-0.16797l-0.13672-11.152h0.16797c0.36328 0 0.65234-0.28906 0.65234-0.63672l-0.015625-1.0898h0.27344c0.34766 0 0.66797-0.13672 0.91016-0.37891 0.24219-0.24219 0.37891-0.5625 0.37891-0.89453l-0.03125-2.0156c0-0.46875-0.28906-0.89453-0.72656-1.1055l-7.8047-4.3633c0.089843-0.39453 0.15234-0.80469 0.16797-1.2109 0.0625-2.7578-1.9375-5.168-4.6523-5.6055-0.41016-0.10547-0.83203-0.16797-1.2734-0.16797h-0.089844c-3.0312 0-5.5469 2.5-5.6211 5.6055-0.015625 0.57422 0.046875 1.1211 0.19531 1.668l-7.8789 4.4258c-0.4375 0.22656-0.69531 0.65234-0.69531 1.1211l0.03125 2.0156c0 0.074219 0.015626 0.16797 0.03125 0.24219 0.12109 0.57422 0.66797 1 1.2891 1h0.015625 0.03125l0.015625 1.0898c0 0.34766 0.30469 0.62109 0.66797 0.60547h0.16797l0.13672 11.152h-0.16797c-0.36328 0-0.65234 0.28906-0.65234 0.63672l0.015625 0.92578c-0.03125-0.4375-0.12109-0.86328-0.25781-1.2734-0.30469-0.95312-1.3633-2.0156-3.1523-3.1836l-0.48438-22.574c-0.03125-1.3945 0.48438-2.7266 1.4531-3.7266 0.96875-1.0156 2.2734-1.5742 3.668-1.6055l20.273-0.39453c0.24219 0 0.48438 0 0.71094 0.03125 2.5742 0.30469 4.5742 2.5 4.6211 5.1055l0.58984 28.121c-0.15234-0.27734-0.39453-0.48828-0.68359-0.64062zm-36.668 6.543c-0.37891-1.0742-0.19531-2.9258 0.4375-4.6953 0.046875-0.12109 0.10547-0.24219 0.19531-0.33203 0.074219 0.03125 0.15234 0.0625 0.22656 0.089844 0.46875 0.16797 4.668 1.8477 5.3477 2.1211 0.33203 0.13672 0.66797 0.28906 1.0312 0.37891 0.18359 0.046875 0.36328 0.0625 0.5625 0.0625 0.24219-0.015625 0.31641-0.046875 0.53125 0.10547 0.5 0.36328 1.0469 0.80469 1.3164 1.3789 0.5 1 0.63672 2.1367 0.42578 3.3789-0.10547 0.63672-0.69531 1.0898-1.3477 1.0312-0.074219 0-0.13672-0.015625-0.21094-0.03125-0.5625-0.13672-1.2422-0.30469-1.9688-0.46875-0.92578-0.22656-1.6055-0.37891-2.2109-0.51562-0.48438-0.10547-0.92578-0.21094-1.2891-0.28906-0.089843-0.015625-0.18359-0.046875-0.25781-0.0625l-0.13672-0.03125h-0.015625l-0.30469-0.0625c-1.0742-0.23828-1.9688-1.0117-2.332-2.0586zm2.457 6.7305c-0.30469-0.89453-0.18359-2.4102 0.33203-3.8945 0.03125 0.015624 0.074219 0.015624 0.10547 0.03125 0.36328 0.074218 0.80469 0.16797 1.2734 0.28906 0.60547 0.13672 1.2891 0.30469 2.2109 0.51562 0.71094 0.16797 1.3945 0.33203 1.9688 0.46875 0.074219 0.015625 0.13672 0.03125 0.21094 0.03125h0.03125c1.1211 0.65234 1.832 1.2578 2.1055 1.7891 0.046875 0.089843 0.089843 0.18359 0.12109 0.27344 0.19531 0.48438 0.30469 1 0.31641 1.5625 0 0.34766-0.015625 0.69531-0.074219 1.0469-0.046875 0.28906-0.21094 0.53125-0.45312 0.68359-0.24219 0.16797-0.54688 0.21094-0.83203 0.13672-0.5-0.12109-4.9102-1.1523-5.3164-1.2266h-0.015626c-0.42578-0.089844-0.81641-0.27344-1.1367-0.53125-0.39453-0.29688-0.68359-0.70703-0.84766-1.1758zm11.574 15.832c-0.34766 0-0.69531 0-1.0312-0.046875-1.1523-0.10547-2.2266-0.42578-3.1953-0.91016-0.24219-0.12109-0.48438-0.25781-0.71094-0.39453-0.22656-0.13672-0.45312-0.30469-0.66797-0.45313-2.1523-1.6211-3.5469-4.1836-3.6055-7.0625l-0.089844-4.4688h0.015625c0.089844 0.015626 1.3633 0.30469 1.5156 0.33203l0.03125 1.2422c0.0625 2.9531 2.3047 5.4375 5.2266 5.7734 0.27344 0.03125 0.54687 0.046875 0.80469 0.046875l20.273-0.39453c1.5742-0.03125 3.0625-0.68359 4.1523-1.8164 0.5-0.53125 0.91016-1.1211 1.1836-1.7891 0.33203-0.77344 0.48438-1.5898 0.46875-2.4375l-0.94531-44.242c-0.0625-2.9531-2.3047-5.4258-5.2266-5.7734-0.27344-0.03125-0.53125-0.046875-0.80469-0.046875l-20.273 0.39453c-1.5742 0.03125-3.0625 0.68359-4.1523 1.8164-1.0898 1.1367-1.6836 2.6367-1.6523 4.2266l0.46875 22.121c-0.15234-0.089844-1.3633-0.77344-1.5-0.84766l-0.375-19.559c-0.089843-4.9844 3.8789-9.1211 8.8633-9.2266 0 0 17.031-0.33203 17.09-0.33203 2.3477 0 4.5742 0.89453 6.2734 2.5312 1.7422 1.6836 2.7266 3.9258 2.7734 6.3477l0.87891 45.426c0.015625 0.80469-0.074219 1.5898-0.25781 2.3477-0.98438 3.9688-4.5156 6.7891-8.6055 6.8633z"/>
  <path d="m67.727 74.242c-0.95312-0.10547-1.8164 0.57422-1.9258 1.5312-0.10547 0.95312 0.57422 1.8164 1.5312 1.9258 0.95312 0.10547 1.8164-0.57422 1.9258-1.5312 0.10547-0.95703-0.57422-1.8203-1.5312-1.9258z"/>
  <path d="m19.031 59.668c-0.72656-0.15234-1.3633 0.31641-1.4375 1.0469-0.0625 0.71094 0.45312 1.4258 1.1836 1.5742 0.72656 0.16797 1.3789-0.28906 1.4375-1.0156 0.074218-0.72656-0.45703-1.457-1.1836-1.6055z"/>
  <path d="m68.047 21.516c-0.074219-0.015625-0.16797-0.015625-0.28906-0.015625-1.1211-0.03125-2.1953 0.39453-3 1.168-0.81641 0.77344-1.2734 1.8164-1.3047 2.9531-0.03125 1.1211 0.39453 2.1953 1.168 3 0.77344 0.81641 1.8164 1.2734 2.9531 1.3047h0.10547c0.15234 0 0.28906 0 0.41016-0.015625 2.1055-0.21094 3.7422-1.9688 3.7891-4.0898 0.046875-2.2305-1.6367-4.1094-3.832-4.3047zm-0.03125 7.6953c-0.13672 0.015624-0.27344 0.015624-0.42578 0.015624-0.9375-0.015624-1.8164-0.41016-2.4688-1.0898-0.65234-0.68359-1-1.5742-0.96875-2.5156 0.015625-0.9375 0.41016-1.8164 1.0898-2.4688 0.66797-0.63672 1.5156-0.96875 2.4258-0.96875h0.074219c0.074218 0 0.15234 0 0.22656 0.015625 1.832 0.16797 3.2422 1.7422 3.2109 3.5742-0.027344 1.7891-1.3906 3.2578-3.1641 3.4375z"/>
  <path d="m68.453 24.258c0.13672 0.03125 0.25781 0.046876 0.34766 0.046876 0.10547 0 0.21094-0.046876 0.28906-0.13672 0.074218-0.089844 0.12109-0.16797 0.12109-0.25781 0-0.10547-0.12109-0.19531-0.34766-0.28906-0.22656-0.074219-0.4375-0.12109-0.65234-0.12109l0.046874-0.34766c0.03125-0.21094-0.046874-0.30469-0.24219-0.30469-0.18359 0-0.30469 0.10547-0.31641 0.31641l-0.0625 0.4375c-0.39453 0.13672-0.72656 0.33203-1 0.60547-0.25781 0.27344-0.39453 0.54688-0.37891 0.80469 0 0.19531 0.10547 0.34766 0.31641 0.46875 0.21094 0.12109 0.46875 0.18359 0.78906 0.19531l-0.15234 1.1523c-0.074219 0.015625-0.12109 0.015625-0.18359 0.015625-0.046875 0-0.15234-0.015625-0.31641-0.0625-0.15234-0.046875-0.27344-0.074219-0.34766-0.0625-0.16797 0-0.28906 0.046875-0.36328 0.13672-0.074219 0.089843-0.10547 0.18359-0.10547 0.28906 0 0.13672 0.12109 0.24219 0.34766 0.31641 0.22656 0.074218 0.48437 0.089843 0.77344 0.074218l0.10547-0.015625-0.074219 0.58984c-0.015625 0.074219 0 0.13672 0.046875 0.19531 0.046875 0.0625 0.089844 0.074218 0.18359 0.074218 0.19531 0 0.31641-0.10547 0.33203-0.28906l0.089844-0.65234c1.0312-0.25781 1.5312-0.74219 1.5156-1.4688-0.015625-0.31641-0.13672-0.5625-0.37891-0.72656-0.24219-0.15234-0.5-0.22656-0.75781-0.22656h-0.0625l0.10547-0.80469c0.10547 0 0.21094 0.015624 0.33203 0.046874zm-1 0.74219c-0.25781-0.03125-0.39453-0.10547-0.39453-0.22656 0-0.16797 0.15234-0.31641 0.48438-0.45313zm0.98438 1.0742c0 0.28906-0.21094 0.48438-0.65234 0.60547l0.13672-1c0.33594 0.015624 0.51562 0.15234 0.51562 0.39453z"/>
  <path d="m42.621 18.637c0.4375 0.089843 0.89453 0.15234 1.3633 0.16797h0.16797c0.5625 0 1.1211-0.0625 1.6523-0.19531 3.0742-0.75781 5.2891-3.4844 5.3477-6.668 0.074218-3.4688-2.4531-6.5156-5.8633-7.0742-0.31641-0.0625-0.65234-0.089844-1-0.089844-1.1836-0.03125-2.332 0.24219-3.3633 0.77344-2.3633 1.0312-4.0625 3.3945-4.1367 6.1953-0.078124 3.5117 2.4688 6.4805 5.832 6.8906zm7.832-6.7266c-0.0625 2.8633-2.0469 5.332-4.832 6.0156-0.53125 0.13672-1.0898 0.19531-1.6367 0.18359-1.6953-0.03125-3.2578-0.72656-4.4375-1.9531-1.168-1.2266-1.7891-2.8164-1.7578-4.5156 0.03125-1.6953 0.72656-3.2578 1.9531-4.4375 1.1836-1.1367 2.7266-1.7578 4.3633-1.7578h0.15234c0.30469 0 0.60547 0.03125 0.89453 0.089844 3.1055 0.49609 5.3789 3.2539 5.3008 6.375z"/>
  <path d="m44.258 6.4844c-1.4102-0.03125-2.7578 0.48438-3.7734 1.4688-1.0156 0.96875-1.6055 2.2891-1.6367 3.7109-0.0625 2.9102 2.2578 5.3477 5.168 5.4102h0.12109c0.18359 0 0.36328-0.015625 0.53125-0.03125 2.6523-0.25781 4.6953-2.4688 4.7578-5.1523 0.0625-2.7734-2.0625-5.1367-4.8164-5.3945-0.10938 0.003906-0.23047-0.011719-0.35156-0.011719zm4.4688 5.3945c-0.046874 2.3164-1.832 4.2422-4.1367 4.4688-0.18359 0.015625-0.37891 0.03125-0.5625 0.015625-2.5312-0.0625-4.5469-2.168-4.5-4.6953 0.03125-1.2266 0.53125-2.3789 1.4258-3.2266 0.86328-0.81641 1.9844-1.2734 3.1836-1.2734h0.10547c0.10547 0 0.21094 0.015625 0.30469 0.015625 2.3906 0.22656 4.2422 2.2695 4.1797 4.6953z"/>
  <path d="m43.395 9.9258c-0.30469 0.30469-0.4375 0.60547-0.42578 0.91016 0 0.21094 0.12109 0.39453 0.36328 0.53125 0.22656 0.13672 0.53125 0.21094 0.89453 0.22656l-0.16797 1.3047c-0.074219 0.015624-0.15234 0.015624-0.19531 0.015624-0.0625 0-0.18359-0.03125-0.36328-0.074218-0.18359-0.046875-0.30469-0.074219-0.39453-0.074219-0.19531 0-0.33203 0.0625-0.41016 0.15234-0.074218 0.10547-0.12109 0.21094-0.12109 0.33203 0 0.15234 0.13672 0.27344 0.39453 0.36328 0.25781 0.074219 0.54688 0.10547 0.87891 0.089844l0.12109-0.015625-0.089844 0.66797c-0.015625 0.089843 0 0.15234 0.046875 0.21094 0.011719 0.054688 0.074219 0.085938 0.16406 0.085938 0.22656 0 0.36328-0.12109 0.37891-0.31641l0.089844-0.74219c1.168-0.28906 1.7422-0.83203 1.7109-1.668-0.015625-0.36328-0.15234-0.63672-0.42578-0.81641-0.27344-0.18359-0.5625-0.25781-0.86328-0.25781h-0.0625l0.12109-0.91016c0.12109 0 0.24219 0.03125 0.37891 0.046875 0.15234 0.03125 0.28906 0.0625 0.39453 0.046875 0.12109 0 0.24219-0.0625 0.33203-0.15234 0.089844-0.089843 0.13672-0.19531 0.13672-0.28906 0-0.12109-0.13672-0.22656-0.39453-0.31641-0.25781-0.089844-0.5-0.13672-0.72656-0.13672l0.046875-0.39453c0.03125-0.22656-0.0625-0.34766-0.27344-0.33203-0.21094 0-0.33203 0.12109-0.36328 0.34766l-0.054687 0.48047c-0.45312 0.15234-0.83203 0.37891-1.1211 0.68359zm0.91016 0.90625c-0.28906-0.03125-0.4375-0.10547-0.4375-0.24219 0-0.19531 0.18359-0.36328 0.54687-0.5zm0.52734 0.77344c0.37891 0.03125 0.57422 0.18359 0.57422 0.45312 0.015625 0.31641-0.24219 0.54688-0.72656 0.68359z"/>
  <path d="m23.453 34.742c-0.12109 4.3164 3.1367 7.8945 7.3164 8.0898 0.33203 0.046875 0.68359 0.074219 1.0312 0.089844h0.18359c0.63672 0 1.2891-0.074219 1.9102-0.22656 3.5625-0.86328 6.1055-4.0312 6.1953-7.6953 0.089844-4.0312-2.832-7.5469-6.8047-8.1836-0.36328-0.0625-0.74219-0.089844-1.1211-0.10547-1.0625-0.03125-2.1055 0.16797-3.0742 0.53125-3.1797 0.96875-5.543 3.9414-5.6367 7.5zm15.941 0.22656c-0.074219 3.3633-2.4102 6.2578-5.668 7.0469-0.62109 0.15234-1.2734 0.22656-1.9102 0.21094-1.9844-0.046874-3.8164-0.86328-5.1953-2.2891-1.3633-1.4258-2.1055-3.3047-2.0625-5.2891 0.046875-1.9844 0.86328-3.8164 2.2891-5.1953 1.3945-1.332 3.1953-2.0625 5.1211-2.0625h0.16797c0.34766 0.015625 0.69531 0.046875 1.0312 0.089844 3.6367 0.59375 6.3008 3.8242 6.2266 7.4883z"/>
  <path d="m32.105 28.711c-1.6211-0.03125-3.168 0.5625-4.3477 1.6836-1.1836 1.1211-1.8477 2.6367-1.8789 4.2734-0.074218 3.3633 2.5898 6.1523 5.9531 6.2266h0.13672c0.21094 0 0.41016-0.015625 0.62109-0.03125 3.0625-0.30469 5.4102-2.8477 5.4844-5.9258 0.074219-3.1953-2.3633-5.9258-5.5469-6.2109-0.13281 0-0.26953 0-0.42188-0.015624zm5.2734 6.2148c-0.0625 2.7266-2.1523 4.9844-4.8633 5.2578-0.21094 0.015625-0.4375 0.03125-0.66797 0.03125-2.9844-0.0625-5.3477-2.5469-5.2891-5.5156 0.03125-1.4375 0.62109-2.7891 1.668-3.7891 1.0156-0.96875 2.332-1.5 3.7266-1.5h0.12109c0.12109 0 0.24219 0.015625 0.36328 0.015625 2.8359 0.25781 5 2.6641 4.9414 5.5z"/>
  <path d="m31.062 32.879c-0.36328 0.37891-0.54688 0.75781-0.53125 1.1367 0 0.27344 0.15234 0.48438 0.4375 0.65234 0.28906 0.16797 0.65234 0.25781 1.1055 0.27344l-0.21094 1.6211c-0.089843 0.015625-0.18359 0.015625-0.24219 0.015625-0.0625 0-0.21094-0.03125-0.45312-0.089844-0.22656-0.0625-0.37891-0.089843-0.48438-0.089843-0.24219 0-0.41016 0.074218-0.5 0.19531-0.10547 0.12109-0.15234 0.25781-0.13672 0.41016 0 0.19531 0.16797 0.33203 0.48438 0.4375 0.31641 0.10547 0.68359 0.13672 1.0898 0.10547l0.13672-0.015625-0.10547 0.81641c-0.015625 0.10547 0 0.19531 0.0625 0.27344 0.0625 0.074218 0.13672 0.10547 0.24219 0.10547 0.28906 0 0.4375-0.13672 0.46875-0.39453l0.12109-0.92578c1.4375-0.34766 2.1523-1.0469 2.1211-2.0625-0.015625-0.45312-0.19531-0.78906-0.53125-1.0156-0.34766-0.21094-0.69531-0.31641-1.0742-0.31641h-0.074219l0.15234-1.1367c0.15234 0.015625 0.30469 0.03125 0.46875 0.0625 0.19531 0.046875 0.36328 0.0625 0.48438 0.0625 0.15234 0 0.28906-0.0625 0.41016-0.18359s0.16797-0.24219 0.16797-0.36328c0-0.15234-0.16797-0.28906-0.48438-0.39453-0.31641-0.10547-0.62109-0.16797-0.91016-0.16797l0.0625-0.48438c0.03125-0.28906-0.074219-0.42578-0.33203-0.42578-0.25781 0-0.41016 0.15234-0.45312 0.4375l-0.074219 0.60547c-0.60156 0.1875-1.0547 0.47656-1.418 0.85547zm1.1211 1.1211c-0.36328-0.03125-0.54688-0.13672-0.54688-0.30469 0-0.24219 0.21094-0.45312 0.68359-0.62109zm0.66406 0.95312c0.46875 0.03125 0.71094 0.22656 0.71094 0.5625 0.015625 0.39453-0.28906 0.68359-0.91016 0.84766z"/>
  <path d="m19.41 28.332c0.0625 0.10547 0.18359 0.16797 0.28906 0.16797h0.03125c0.12109-0.015625 0.24219-0.089844 0.28906-0.19531 0.39453-0.84766 0.80469-1.6836 1.2266-2.4375v-0.015626c2.1367-3.8789 4.7578-6.7734 7.7891-8.6211 0.15234-0.089844 0.21094-0.28906 0.13672-0.45312l-2.5039-5.1094c-0.074219-0.16797-0.28906-0.24219-0.45312-0.16797-1.8164 0.81641-5.2266 2.6367-7.6367 5.6055-0.58984 0.71094-1.1523 1.5742-1.6836 2.5312-0.5625 1.0156-0.96875 1.9375-1.1953 2.5312-0.046875 0.10547-0.03125 0.22656 0.03125 0.31641zm-1.9258-8.3477c0.51562-0.92578 1.0625-1.7422 1.6211-2.4258 2.1953-2.6953 5.2734-4.4258 7.0898-5.2734l2.2109 4.5156c-3.0156 1.9102-5.6367 4.832-7.7734 8.7109v0.015625c-0.33203 0.60547-0.66797 1.2578-0.98437 1.9258l-3.2578-5.1523c0.24609-0.60547 0.60938-1.4219 1.0938-2.3164z"/>
  <path d="m22.348 20.211c0.81641-0.89453 1.2578-1.8477 0.72656-2.332s-1.6211-0.13672-2.4258 0.75781c-0.81641 0.89453-1.0469 2.0156-0.51563 2.4844 0.53516 0.48438 1.3984-0.015625 2.2148-0.91016z"/>
  <path d="m53.695 5.5898c0.62109 0.28906 1.2109 0.57422 1.7578 0.87891 2.7734 1.5312 4.8477 3.4102 6.168 5.5625 0.0625 0.10547 0.18359 0.16797 0.30469 0.16797 0.046875 0 0.10547-0.015625 0.15234-0.03125l3.668-1.8047c0.16797-0.074219 0.24219-0.28906 0.16797-0.45312-0.58984-1.3164-1.9102-3.7734-4.0625-5.5312-0.51562-0.42578-1.1367-0.83203-1.832-1.2266-0.72656-0.41016-1.3945-0.69531-1.832-0.86328-0.10547-0.046874-0.22656-0.03125-0.31641 0.03125l-4.1953 2.6523c-0.10547 0.0625-0.16797 0.18359-0.16797 0.31641 0.007813 0.13672 0.082032 0.24219 0.1875 0.30078zm4.3789-2.5898c0.41016 0.16797 0.96875 0.42578 1.5898 0.77344 0.66797 0.36328 1.2422 0.75781 1.7266 1.1523 1.8789 1.5312 3.1055 3.668 3.7266 4.9688l-3.0898 1.5156c-1.3789-2.1523-3.4844-4.0156-6.2578-5.5469-0.39453-0.21094-0.80469-0.42578-1.2266-0.63672z"/>
  <path d="m59.547 7.1836c0.63672 0.57422 1.332 0.89453 1.6836 0.51562 0.34766-0.37891 0.10547-1.168-0.54688-1.7422-0.63672-0.57422-1.4375-0.74219-1.7891-0.36328-0.34766 0.375 0.015625 0.99609 0.65234 1.5898z"/>
 </g>
</svg>