<svg xmlns="http://www.w3.org/2000/svg" xmlns:xlink="http://www.w3.org/1999/xlink" version="1.1" x="0px" y="0px" viewBox="-25.6 -51.2 563.2 691.2" enable-background="new 0 0 512 512" xml:space="preserve" fill="#610BEF"><g><path d="M308.98,152.565h55.823c2.206,0,4,1.794,4,4v87.984c0,2.209,1.791,4,4,4s4-1.791,4-4v-87.984c0-6.617-5.383-12-12-12   H308.98c-2.209,0-4,1.791-4,4S306.771,152.565,308.98,152.565z"/><path d="M252.199,162.566c0.521,0,1.041-0.1,1.53-0.31c0.87-0.36,1.56-1,1.99-1.79c0.31-0.57,0.479-1.22,0.479-1.9v-6h28.561   c2.21,0,4-1.79,4-4s-1.79-4-4-4h-28.08c-0.16,0-0.32,0.03-0.48,0.05v-6.05c0-1.62-0.97-3.08-2.47-3.7   c-1.489-0.62-3.21-0.27-4.35,0.87l-10,10c-1.57,1.56-1.57,4.09,0,5.66l10,10C250.14,162.157,251.16,162.566,252.199,162.566z"/><path d="M493.951,272.893h-75.366V27.045c0-10.371-8.415-18.787-18.786-18.787H157.424c-4.566,0-8.769,1.627-12.023,4.347   c-2.465,2.053-4.396,4.736-5.55,7.797c-0.789,2.064-1.214,4.299-1.214,6.643v61.172H66.569c-2.78,0-5.02,2.25-5.02,5.02v167.09   H18.13c-2.23,0-4.03,1.801-4.03,4.03v57.511c0,13.41,10.87,24.279,24.28,24.279c0.8,0,1.58-0.04,2.359-0.119h97.897v44.668h-25.676   c-2.206,0-4-1.794-4-4V362.18c0-2.209-1.791-4-4-4s-4,1.791-4,4v24.516c0,6.617,5.383,12,12,12h25.676v86.26   c0,10.371,8.416,18.787,18.787,18.787h242.375c10.371,0,18.786-8.416,18.786-18.787v-84.064h75.366   c2.181,0,3.949-1.769,3.949-3.949v-120.1C497.9,274.66,496.132,272.893,493.951,272.893z M39.631,346.027L39.631,346.027   c0.68-0.066,1.349-0.171,2.012-0.291C40.979,345.856,40.311,345.961,39.631,346.027z M43.832,345.242   c1.267-0.355,2.491-0.811,3.664-1.355C46.323,344.432,45.099,344.887,43.832,345.242z M302.59,24.248h16c2.209,0,4,1.791,4,4   s-1.791,4-4,4h-16c-2.209,0-4-1.791-4-4S300.381,24.248,302.59,24.248z M238.59,24.248h40c2.209,0,4,1.791,4,4s-1.791,4-4,4h-40   c-2.209,0-4-1.791-4-4S236.381,24.248,238.59,24.248z M65.259,338.027c2.738-4.758,4.291-10.279,4.291-16.16V96.217h136.14v229.21   c0,6.948-5.652,12.601-12.6,12.601H65.259z M278.574,484.311c-5.365,0-9.715-4.35-9.715-9.715s4.35-9.715,9.715-9.715   s9.716,4.35,9.716,9.715S283.939,484.311,278.574,484.311z M402.59,441.774c0,3.58-2.9,6.47-6.47,6.47H161.06   c-3.569,0-6.47-2.89-6.47-6.47v-43.079h7.438c2.209,0,4-1.791,4-4s-1.791-4-4-4h-7.438v-44.668h38.5c11.38,0,20.6-9.23,20.6-20.601   V93.236c0-2.77-2.25-5.02-5.02-5.02h-54.08V62.715c0-3.57,2.9-6.47,6.47-6.47H396.12c3.569,0,6.47,2.9,6.47,6.47v210.178H257.924   v-8.037c0-4.42-3.584-8.004-8.004-8.004c-4.422,0-8.005,3.584-8.005,8.004v8.037h-0.003H241.9v127.998h0.012h0.003v7.947   c0,4.421,3.583,8.005,8.005,8.005c4.42,0,8.004-3.584,8.004-8.005v-7.947H402.59V441.774z M489.9,390.949   c0,1.072-0.869,1.941-1.94,1.941h-69.375H402.59H257.924v-7.996h39.413v-8.019h-39.413v-95.983H402.59h15.995h69.375   c1.071,0,1.94,0.868,1.94,1.939V390.949z"/><path d="M369.9,297.283c-23.987,0-43.433,19.445-43.433,43.432c0,23.987,19.445,43.433,43.433,43.433   c23.986,0,43.432-19.445,43.432-43.433C413.332,316.729,393.887,297.283,369.9,297.283z M373.621,359.376v7.342h-7.042v-7.335   c-6.627-1.022-10.462-5.057-10.908-10.693h8.366c0.638,2.975,2.88,4.801,6.256,4.801c4.18,0,5.43-2.012,5.43-4.236   c0-2.789-1.48-4.14-6.748-5.681c-9.683-2.849-12.521-6.446-12.521-11.868c0-5.889,4.258-9.518,9.743-10.551v-6.441h6.994v6.4   c7.02,1.098,9.658,5.424,10.063,10.059h-8.37c-0.383-1.588-1.07-4.175-5.398-4.176c-3.514,0-4.58,2.086-4.58,3.868   c0,2.464,1.313,3.573,7.441,5.351c8.5,2.43,11.784,5.907,11.784,12.031C384.13,354.822,379.902,358.424,373.621,359.376z"/><rect x="437.048" y="292.193" width="40.049" height="8.018"/><path d="M80.62,215.003h43.357c2.209,0,4-1.791,4-4s-1.791-4-4-4H80.62c-2.209,0-4,1.791-4,4S78.411,215.003,80.62,215.003z"/><path d="M152.974,231.34H80.62c-2.209,0-4,1.791-4,4s1.791,4,4,4h72.354c2.209,0,4-1.791,4-4S155.183,231.34,152.974,231.34z"/><path d="M80.62,263.678h43.357c2.209,0,4-1.791,4-4s-1.791-4-4-4H80.62c-2.209,0-4,1.791-4,4S78.411,263.678,80.62,263.678z"/><path d="M152.974,280.014H80.62c-2.209,0-4,1.791-4,4s1.791,4,4,4h72.354c2.209,0,4-1.791,4-4S155.183,280.014,152.974,280.014z"/><path d="M169.636,211.003c0,2.209,1.791,4,4,4h19.017c2.209,0,4-1.791,4-4s-1.791-4-4-4h-19.017   C171.427,207.003,169.636,208.794,169.636,211.003z"/><path d="M192.652,231.34h-19.017c-2.209,0-4,1.791-4,4s1.791,4,4,4h19.017c2.209,0,4-1.791,4-4S194.861,231.34,192.652,231.34z"/><path d="M152.974,304.351H80.62c-2.209,0-4,1.791-4,4s1.791,4,4,4h72.354c2.209,0,4-1.791,4-4S155.183,304.351,152.974,304.351z"/><path d="M196.652,308.351c0-2.209-1.791-4-4-4h-19.017c-2.209,0-4,1.791-4,4s1.791,4,4,4h19.017   C194.861,312.351,196.652,310.56,196.652,308.351z"/><path d="M192.652,255.678h-19.017c-2.209,0-4,1.791-4,4s1.791,4,4,4h19.017c2.209,0,4-1.791,4-4S194.861,255.678,192.652,255.678z"/><path d="M192.652,280.014h-19.017c-2.209,0-4,1.791-4,4s1.791,4,4,4h19.017c2.209,0,4-1.791,4-4S194.861,280.014,192.652,280.014z"/><path d="M210.475,390.695h-24.222c-2.209,0-4,1.791-4,4s1.791,4,4,4h24.222c2.209,0,4-1.791,4-4S212.684,390.695,210.475,390.695z"/><path d="M171.293,171.419c2.399-3.297-0.98-9.674,0.306-13.635c1.241-3.822,7.765-6.975,7.765-11.21   c0-4.236-6.523-7.388-7.765-11.21c-1.286-3.961,2.094-10.338-0.306-13.635c-2.423-3.33-9.548-2.073-12.878-4.497   c-3.298-2.399-4.29-9.577-8.251-10.863c-3.822-1.241-8.828,3.942-13.063,3.942s-9.241-5.183-13.063-3.942   c-3.961,1.286-4.953,8.464-8.251,10.863c-3.33,2.423-10.455,1.167-12.878,4.497c-2.4,3.297,0.98,9.674-0.306,13.635   c-1.241,3.822-7.766,6.974-7.766,11.21c0,4.235,6.524,7.388,7.766,11.21c1.286,3.961-2.095,10.337,0.305,13.635   c2.424,3.33,9.549,2.073,12.879,4.497c3.297,2.399,4.29,9.577,8.251,10.864c3.822,1.241,8.828-3.942,13.063-3.942   s9.241,5.183,13.063,3.942c3.96-1.287,4.953-8.464,8.25-10.863C161.744,173.492,168.869,174.749,171.293,171.419z M140.821,165.235   v7.342h-7.042v-7.335c-6.627-1.022-10.462-5.056-10.908-10.694h8.367c0.637,2.975,2.879,4.801,6.255,4.801   c4.18,0,5.429-2.012,5.429-4.236c0-2.789-1.479-4.139-6.747-5.68c-9.683-2.849-12.521-6.447-12.521-11.869   c0-5.888,4.258-9.517,9.743-10.55v-6.441h6.994v6.4c7.02,1.097,9.658,5.424,10.063,10.059h-8.371   c-0.382-1.588-1.068-4.175-5.396-4.176c-3.515,0-4.581,2.085-4.581,3.868c0,2.464,1.313,3.574,7.442,5.351   c8.499,2.43,11.783,5.907,11.783,12.031C151.33,160.681,147.103,164.283,140.821,165.235z"/></g></svg>