<svg xmlns="http://www.w3.org/2000/svg" xmlns:xlink="http://www.w3.org/1999/xlink" xmlns:xodm="http://www.corel.com/coreldraw/odm/2003" xml:space="preserve" version="1.1" style="shape-rendering:geometricPrecision;text-rendering:geometricPrecision;image-rendering:optimizeQuality;" viewBox="0 0 846.66 1058.325" x="0px" y="0px" fill-rule="evenodd" clip-rule="evenodd" fill="#610BEF"><defs><style type="text/css">
   
    .fil0 {fill: "#610BEF";fill-rule:nonzero}
   
  </style></defs><g><path class="fil0" d="M422.94 779.41l-138.07 -167.65c-8.99,-10.92 -12.81,-24.45 -11.68,-37.48 1.19,-13.57 7.95,-26.83 18.72,-35.28 10.73,-8.7 24.07,-12.43 36.87,-11.35 12.95,1.09 25.48,7.07 34.42,17.74l51.29 63.3 0 -132.64c-6.14,1.79 -12.42,3.3 -18.82,4.51 -12.28,2.31 -24.86,3.53 -37.57,3.53l-18 0 17.47 17.47c4.95,4.93 4.98,12.96 0.05,17.91 -4.93,4.95 -12.96,4.98 -17.91,0.05l-39.16 -39.15c-4.95,-4.93 -4.98,-12.96 -0.05,-17.91l39.16 -39.21c4.95,-4.95 13.01,-4.95 17.96,0 4.95,4.95 4.95,13.01 0,17.96l-17.48 17.48 17.96 0c11.36,0 22.37,-1.05 32.91,-3.03 8,-1.51 15.84,-3.59 23.48,-6.17l0 -70.56c0,-14.14 5.78,-27 15.08,-36.3 9.3,-9.3 22.15,-15.08 36.29,-15.08 14.14,0 26.99,5.78 36.29,15.08 5.66,5.66 10.02,12.63 12.56,20.41 3.53,-6.89 6.62,-14.04 9.23,-21.41 6.51,-18.35 10.07,-38.18 10.07,-58.85 0,-28.88 -6.9,-56.08 -19.14,-80.01 -12.72,-24.9 -31.25,-46.39 -53.75,-62.65 -5.67,-4.08 -6.96,-11.99 -2.88,-17.66 4.08,-5.67 11.99,-6.96 17.66,-2.88 25.74,18.6 46.92,43.18 61.49,71.69 14.07,27.52 22.02,58.65 22.02,91.51 0,23.57 -4.08,46.23 -11.55,67.29 -7.2,20.32 -17.63,39.2 -30.63,55.96l0 155.92 117.88 17.1c9.1,1.31 17.37,4.29 24.66,8.84 7.3,4.55 13.62,10.68 18.81,18.27 5.18,7.58 8.65,15.74 10.25,24.3 1.59,8.48 1.34,17.26 -0.84,26.17l-23.29 94.86c-3.84,15.64 -12.62,28.85 -24.49,38.15 -11.87,9.3 -26.78,14.68 -42.86,14.68l-121.22 0c-10.56,0 -20.53,-2.15 -29.55,-6.35 -8.92,-4.16 -16.9,-10.37 -23.64,-18.56zm-46.39 -637.1c-4.95,4.95 -13.01,4.95 -17.96,0 -4.95,-4.95 -4.95,-13.01 0,-17.96l17.47 -17.47 -17.96 0c-48.61,0 -92.6,19.68 -124.38,51.47 -31.84,31.83 -51.52,75.82 -51.52,124.43 0,28.88 6.9,56.08 19.14,80.01 12.7,24.86 31.24,46.35 53.8,62.66 5.67,4.1 6.93,12.04 2.83,17.71 -4.1,5.67 -12.04,6.93 -17.71,2.83 -25.69,-18.58 -46.86,-43.16 -61.44,-71.7 -14.07,-27.52 -22.02,-58.65 -22.02,-91.51 0,-55.53 22.54,-105.85 58.96,-142.29 37.87,-37.87 88.76,-59.01 142.34,-59.01l18.02 0 -17.53 -17.53c-4.93,-4.95 -4.9,-12.98 0.05,-17.91 4.95,-4.93 12.98,-4.9 17.91,0.05l39.15 39.11c4.95,4.95 4.95,13.01 0,17.96l-39.15 39.15zm26.53 108.12c0,7.01 -5.69,12.7 -12.7,12.7 -7.01,0 -12.7,-5.69 -12.7,-12.7 0,-2.31 -1.63,-4.68 -4.24,-6.6 -3.75,-2.77 -9.18,-4.49 -15.34,-4.49 -6.17,0 -11.57,1.7 -15.28,4.44 -2.66,1.97 -4.29,4.34 -4.29,6.65 0,2.61 2.05,5.55 5.33,8.57 4.86,4.47 11.87,8.63 19.7,12.38 9.98,4.79 19.14,10.29 25.95,16.55 8.38,7.7 13.57,16.7 13.57,27.22 0,10.81 -5.61,20.37 -14.66,27.04 -4.93,3.63 -10.96,6.4 -17.62,7.98l0 7.94c0,7.01 -5.69,12.7 -12.7,12.7 -7.01,0 -12.7,-5.69 -12.7,-12.7l0 -7.95c-6.64,-1.57 -12.66,-4.34 -17.6,-7.98 -9.06,-6.66 -14.67,-16.22 -14.67,-27.03 0,-7.01 5.69,-12.7 12.7,-12.7 7.01,0 12.7,5.69 12.7,12.7 0,2.31 1.63,4.68 4.24,6.6 3.76,2.79 9.16,4.49 15.33,4.49 6.16,0 11.59,-1.72 15.34,-4.49 2.61,-1.92 4.24,-4.29 4.24,-6.6 0,-2.6 -2.04,-5.54 -5.33,-8.56 -4.87,-4.48 -11.89,-8.64 -19.71,-12.39 -9.99,-4.79 -19.14,-10.29 -25.94,-16.54 -8.38,-7.72 -13.57,-16.72 -13.57,-27.23 0,-10.82 5.61,-20.37 14.66,-27.04 4.95,-3.63 10.97,-6.4 17.61,-7.97l0 -7.94c0,-7.01 5.69,-12.7 12.7,-12.7 7.01,0 12.7,5.69 12.7,12.7l0 7.93c6.66,1.58 12.69,4.35 17.62,7.98 9.05,6.67 14.66,16.22 14.66,27.04zm-98.67 345.25l138.07 167.65c4.21,5.11 9.21,9.01 14.82,11.62 5.64,2.63 12,3.97 18.83,3.97l121.22 0c10.34,0 19.82,-3.38 27.28,-9.22 7.46,-5.84 13.01,-14.25 15.47,-24.27l23.29 -94.86c1.3,-5.33 1.46,-10.52 0.54,-15.45 -0.94,-5.04 -3.07,-9.97 -6.29,-14.68 -3.16,-4.62 -6.96,-8.32 -11.27,-11.01 -4.32,-2.69 -9.31,-4.48 -14.84,-5.28l-128.07 -18.58c-6.51,-0.54 -11.63,-6 -11.63,-12.65l0 -193.99c0,-7.13 -2.94,-13.64 -7.64,-18.34 -4.7,-4.7 -11.2,-7.64 -18.33,-7.64 -7.13,0 -13.63,2.94 -18.33,7.64 -4.7,4.7 -7.64,11.21 -7.64,18.34l0 265.54c-0.05,3.68 -1.64,7.32 -4.71,9.82 -5.42,4.41 -13.4,3.59 -17.81,-1.83l-73.61 -90.79c-4.38,-5.23 -10.61,-8.18 -17.06,-8.72 -6.57,-0.55 -13.38,1.31 -18.77,5.66 -5.52,4.81 -8.8,10.46 -9.44,17.85 -0.58,6.72 1.36,13.67 5.92,19.22z"/></g></svg>