<svg xmlns="http://www.w3.org/2000/svg" xmlns:xlink="http://www.w3.org/1999/xlink" version="1.1" x="0px" y="0px" viewBox="0 0 156 195" style="enable-background:new 0 0 156 156;" xml:space="preserve" fill="#610BEF"><g><path d="M46.7874641,86.666153l-1.2940063-0.4475098c-2.3178711-0.6708984-4.7412109,0.5917969-5.5273438,2.8779297   c-4.7094765,14.9507141-8.582449,27.1088638-8.9155273,28.4589844c-0.8430386,2.4372406,0.5217304,5.0799179,3.0083008,5.8007813   c68.5023193,19.9081879,64.623291,19.0146484,65.8481445,19.0146484c2.2116013,0,4.1139374-1.6091766,4.4575195-3.8222656   c3.3096008-21.3432007,4.3704529-28.053421,4.6181641-29.8544922c0.3388672-2.234375-1.0405273-4.3945313-3.2089844-5.0253906   l-4.4070435-1.2722168c4.5129929-2.1346512,8.7602005-5.2425461,11.5266724-9.3514404   c0.4755249,3.0238037,0.8753662,6.1700439,1.1811523,9.3824463c0.0477371,0.4999237,0.793808,0.4227676,0.7470703-0.0703125   c-0.3366089-3.5280762-0.7808228-6.9831543-1.3189697-10.2770996c1.2511597-2.131958,1.991272-4.340332,2.1861572-6.5695801   c0.5080719-5.9139099-2.9004517-10.8884125-3.0244141-11.1757813c-1.3203125-2.2434082-4.0383301-6.8587646-6.223877-10.2744141   c7.0652313-5.6101074,10.9180298-15.3889694,8.9753418-25.1279297l-0.0610962-0.2827148   c9.5633774-1.0590553,12.8262787-13.6842136,6.8042603-20.3334961c-2.1479492-2.3691397-5.3115234-3.5976553-8.2504883-3.2050772   c-3.5020142,0.467041-6.593811,3.0321035-9.4519653,7.8395987c-4.1630936-2.9371395-8.6046448-4.5413589-13.4438477-4.9638672   c2.0801392-1.579834,4.5578613-2.6398916,7.149231-2.9675283c0.3890228-0.0484905,0.4503326-0.5918074,0.0795898-0.7246094   c-2.1918945-0.7880859-4.8032227-0.8837891-7.7587891-0.2822266c-3.7620544,0.762682-5.0511398,1.9625301-7.0488281,4.2705069   c-0.0378418,0.0437012-0.060791,0.0939941-0.0750732,0.1462402c-4.2715225,0.8797112-8.3335953,2.8344727-12.1199341,6.1958008   c-2.9191284-3.6990967-5.8967285-5.6013184-9.0701256-5.7687988c-5.662468-0.3212223-10.8760033,4.9573402-10.3374023,12.3144531   c0.4148369,5.6604652,4.2771187,10.6706619,10.1003418,11.2241211c-0.5178337,5.8443375,0.9889946,11.7561226,4.5804405,16.9104004   C57.6925545,66.5090485,50.8804207,75.9571686,46.7874641,86.666153z M105.564743,104.3895416   c1.8085938,0.5263672,2.9589844,2.328125,2.6767578,4.1904297c-0.4380722,2.8035431,0.2959137-1.9181976-4.2382202,27.2712402   c-0.3483658,2.2345581-2.5813675,3.6622772-4.7579346,3.0380859L34.9524422,120.270401   c-1.7724609-0.5146484-2.9018555-2.2080078-2.6826172-4.046875c0.0319595-0.4743347-0.3888779,1.017189,8.4082031-26.8916016   c0.6538086-1.8994141,2.6782227-2.953125,4.5888672-2.3984375l8.4325562,2.9162598   c-2.9996948,5.5628586-2.9456596,12.6185455,0.7312012,18.3620605l-4.7980347-1.1708984   c-0.4752312-0.1211853-0.6636047,0.6105881-0.1777344,0.7285156c0.2653275,0.0647507,9.4730377,2.3117981,8.9501953,2.1842041   c28.3124199,6.905304,27.1301231,6.6341553,27.2304649,6.6341553c0.441803,0,0.516304-0.6353912,0.0883789-0.7392578   l-6.9578247-1.697998c3.2960815-1.8930664,5.9299927-4.7768555,7.492981-8.2404785   c3.683403,0.0674515,9.0462494-0.8846359,14.0236816-3.0456543L105.564743,104.3895416z M67.8690033,80.3463287   c-0.0096436,0.0009766-0.019043,0.0020752-0.0286255,0.0031738l0.0300293-0.0299072   C67.8699188,80.3285065,67.8694916,80.3375397,67.8690033,80.3463287z M74.6838837,81.7205963   c0.1574554,0.0805511,6.1161194,1.4955215,9.8466797,7.5517578c0.0923538,0.2173004,0.8476028,1.2687683,1.5718384,3.2913818   c-1.4546814,0.6567612-2.0634842,0.8858643-3.3471069,1.5982666c-2.9029465-8.8596573-13.6114807-12.3409424-21.1461143-6.8095703   c-7.9724045,5.8517914-7.3064804,17.9374008,1.2265625,22.9100342c-0.1013603-0.0247269-7.8341942-1.9113312-7.342041-1.7912598   c-4.3504524-6.1845703-4.1810875-14.5284195,0.1940918-20.3736572   C62.9067268,78.3055344,74.5375595,81.7154617,74.6838837,81.7205963z M78.7756805,68.8827057   c0.6286926,0.2544708,2.3395767,1.2836151,5.8725586,1.5810547c-0.0570984,0.1006165-1.2536926,2.2090378-1.1777344,2.0751953   c-0.4777069,0.843689-1.6429825,2.9016724-1.5698242,2.7724609l-4.4882813-6.7480469   C77.8489227,68.6746979,78.3040009,68.7811432,78.7756805,68.8827057z M98.7810516,68.5340729l-3.7558594,8.1259766   c-0.383049-0.6348419-4.0229645-6.6673813-3.791748-6.2841797C93.8914795,70.0735168,96.6397552,69.3698502,98.7810516,68.5340729z    M78.1117401,100.3475494c-0.0531006,0.1247559-0.0388794,0.2646484,0.0404663,0.369873   c0.2666321,1.6755905,1.5475998,2.9422455,3.0107422,3.7929688c-2.5925903,4.8652344-7.9321899,7.5695801-13.4146118,6.7180176   c-7.0654259-1.0878906-11.9291954-7.71875-10.8422813-14.78125c0.5268555-3.4248047,2.3544922-6.4404297,5.1469727-8.4902344   c7.2511482-5.3235931,17.4115639-1.7833405,20.039608,6.5895996   C80.0321579,95.8220596,77.9575577,97.9406052,78.1117401,100.3475494z M85.4482269,105.8631744   c-1.6225586,3.4396973-4.3424683,6.277832-7.7389526,8.0273438l-7.3007813-1.7808838   c4.7670288-0.2296143,9.1176758-2.9273682,11.418457-7.2473145   C82.9178314,105.3868561,84.163559,105.7401276,85.4482269,105.8631744z M112.1570282,74.9520416   c1.46875,2.4755859,3.144043,6.3056641,2.784668,10.4941406c-1.0309143,11.7796478-17.3189774,20.0912933-28.8740234,19.7156982   c-0.0234375-0.0025635-0.0457764-0.0037842-0.0689087-0.0018311c-2.1413803-0.0844498-4.1059036-0.8871765-5.3673706-1.8913574   c0.020813-0.0227051,0.0479736-0.0373535,0.0632324-0.0656738c0.5634766-1.0458984,1.9702148-1.546875,3.0678711-1.1005859   c0.1923828,0.0810547,0.4101563-0.0126953,0.4892578-0.2050781c0.3756027-0.9202194-2.9369888-1.2456589-4.1680908,0.8776855   c-0.8151703-0.8236465-1.0988693-1.5450058-1.1899414-2.2617188c0.9064331-1.34729,2.5474243-2.1679688,4.1778564-2.0593262   c0.2011719,0.015625,0.3857422-0.1416016,0.4003906-0.3476563c0.0146484-0.2070313-0.1411133-0.3857422-0.3476563-0.4003906   c-1.5203247-0.1066895-3.0513306,0.4910889-4.1429443,1.5407715c0.2421265-0.935791,0.8586426-1.8919678,1.8660889-2.8366699   c3.0933685-2.8963394,7.50737-2.8984833,15.2080078-9.1103516c0.3855743-0.3131332-0.0864716-0.8949738-0.4716797-0.5839844   c-0.3129883,0.253418-0.6377563,0.5002441-0.9608154,0.7479248l-3.1994019-11.0604248l1.1768799-2.3088379   c2.2240753,3.5584717,2.0858841,3.7404785,2.468689,3.7404785c0.0068359,0,0.0136719,0,0.0205078-0.0009766   c0.1386719-0.0068359,0.2617188-0.0908203,0.3198242-0.2167969l4.3948975-9.5107422   c2.2996445-0.9746933,4.0690384-2.0956955,6.0384521-3.5877686   C107.904274,67.7424088,110.3451462,71.8740082,112.1570282,74.9520416z M62.6802864,42.4378815   c1.7431831,0.0431099,3.3111076-0.3445473,4.6354332-1.0424805c0.4403076-0.2324829,0.0864868-0.8966446-0.3496094-0.6640625   c-5.9678345,3.1491737-13.7785797-1.3146439-14.3867149-9.6152344C52.0868111,24.3893433,56.758358,19.3364697,62.1292,19.6043854   c3.2880821,0.1748047,6.3915977,2.3876953,9.4873009,6.7646484c0.2865982,0.4047394,0.8990936-0.0285816,0.6123047-0.4335938   c-0.1785889-0.2524414-0.3580933-0.4720459-0.5370483-0.7108154c3.4648972-3.0912838,7.584877-5.2948265,12.2997437-6.1651611   c0.2456665-0.0459518,0.392868-0.3237381,0.2509766-0.5618896c1.7885513-2.0533829,2.9974442-3.06073,6.3896484-3.7506094   c2.1362305-0.4335938,4.0761719-0.4902344,5.7880859-0.1689453c-2.4008789,0.5802002-4.6556396,1.7470694-6.5403442,3.3459463   c-0.0586548,0.0275879-0.1062622,0.0727539-0.1426392,0.1296387c-0.99646,0.8664551-1.8926392,1.84729-2.6358643,2.9394531   c-0.2325439,0.3421116,0.1824875,0.7546406,0.5229492,0.5195313c0.2460938-0.1699219,0.6152344-0.1679688,0.9731445-0.1484375   c1.1469727,0.0566406,2.2900391,0.2001953,3.4135742,0.4296875c-0.7739258,0.2929688-1.5839844,0.6748047-2.5029297,1.1767578   c-0.4361115,0.2385216-0.0749817,0.8958035,0.359375,0.6582031c1.3881836-0.7587891,2.5102539-1.2294922,3.6381836-1.5283203   c0.3696518-0.0965252,0.3723984-0.6254158,0.0009766-0.7246094c-2.3583679-0.6298656-4.8328629-0.8015079-5.1918945-0.7695313   c0.5568237-0.7060547,1.1851807-1.3532715,1.861084-1.9465332c9.1999664,0.5337696,14.406189,5.529541,14.8288574,5.529541   c0.3294144,0,0.5077209-0.4146442,0.2485352-0.6738281c-0.0617676-0.046875-0.1276245-0.0881348-0.1897583-0.1345215   c0.0078125-0.010498,0.0188599-0.0170898,0.0256958-0.0285645c2.7368164-4.609375,5.6542969-7.0615234,8.9189453-7.4970694   c2.6982422-0.3652344,5.6103516,0.7753897,7.5952148,2.9648428c4.1146774,4.5433578,3.7544632,12.725647-1.0825195,16.8378906   c-2.7045898,2.3007813-6.5839844,2.9589844-9.6533203,1.6416016c-0.4588318-0.1929474-0.7503357,0.4936943-0.2958984,0.6894531   c1.2001495,0.5146408,2.5085526,0.7683945,4.0269165,0.7141113l0.0858765,0.3933105   c2.8458099,14.2818985-6.9076767,28.9555435-24.1137695,30.5947266c-6.5797119,0.6306686-9.5541382-0.495903-13.625-2.4189453   C66.8960495,62.376091,61.8089104,52.1428719,62.6802864,42.4378815z M66.9455414,59.9212799   c2.4089355,3.2506104,5.5724487,5.9313965,9.2923584,7.8181152c-0.2572861,0.4008331-0.0240784,0.2106705,5.3761597,8.4958496   c0.1529541,0.2304993,0.4995804,0.2220383,0.6381836-0.0234375l1.592041-2.8077393l2.1537476,2.8181152l-1.3710938,11.8409424   c-2.3382645-3.3768463-5.6775284-5.7448959-9.2184448-6.9001465c-0.4872284-0.1494064-0.577507-0.1982422-0.6777344-0.1982422   c-2.2409439-0.6425552-4.0799561-0.7919083-6.1074219-0.6811523c0.1188889-2.1626968,0.3099518-5.732666,0.2431641-7.8979492   c-0.0129395-0.4315186-0.7624512-0.4090576-0.7495117,0.0224609c0.0588379,1.9611816-0.085495,4.8404541-0.1898193,6.798584   l-1.3128662,1.3051758c-5.3714218,0.8496017-10.009346,4.3189468-12.5404015,8.6737061l-6.5762939-2.2739258   C51.5380135,76.3506012,58.2534065,67.0316315,66.9455414,59.9212799z"/><path d="M86.0732269,45.4254303l0.4107056,2.7633057c-1.5960693-0.0245361-3.1818848-0.3011475-4.6165161-0.8153076   c-1.9290771-0.6917725-4.1992188-1.7734375-5.8458252-0.5554199c-3.6535263,2.7101364,1.6485138,13.6358223,12.0911255,13.0653076   c10.1660004-1.298481,13.6571655-12.9764481,9.5188599-15.0335693c-1.8511353-0.8962402-3.8874512,0.5749512-5.6509399,1.5981445   c-1.4165649,0.8347168-3.0603027,1.418457-4.7459106,1.7133789c-0.1087265-0.7378502-0.4315414-2.9284515-0.4117432-2.7940674   c0.1957397-0.0621338,0.3883667-0.1490479,0.5687256-0.293335c0.6625366-0.526001,1.3250732-1.0617676,1.8901367-1.6953125   c1.112587-1.2090988,1.8135757-2.2851181,0.2630615-2.8544922c-2.133728-0.779541-4.5110474-0.779541-6.7226563-0.3118896   c-0.2728271,0.0584717-0.5651245,0.1268311-0.7891846,0.302124c-0.6917725,0.5358887-0.2922974,1.4418945,0.1461182,1.9875488   C82.9421844,43.4533844,84.571701,45.2514801,86.0732269,45.4254303z M96.842392,49.8090973   c0.652832,0.3311768,0.9743042,1.1009521,0.7112427,1.7926025c-1.6113358,4.0287132-5.1871719,6.7621765-9.489624,7.3171387   c-4.3922577,0.2394676-8.3611832-1.8784714-10.571167-5.3198242c-0.4642258-0.696125-0.1565018-1.7820206,0.7697144-2.0849609   c1.8771362-0.6258278,5.2323227-0.2411995,7.7261963,1.7539063C88.6671982,49.9123764,92.9114151,47.8962975,96.842392,49.8090973z    M87.7327118,40.952652c0.3702393,0.1170654,0.9255981,0.302124,1.0620117,0.7111816   c0.1655884,0.4482422-0.5066528,0.5456543-0.8087158,0.5651855c-0.6722412,0.0389404-1.3737793-0.1461182-1.958313-0.4676514   C84.9994965,41.2102318,85.7149658,40.3955803,87.7327118,40.952652z"/><path d="M61.9954109,24.1327057c-1.8369141-0.3847656-3.6914063,0.1660156-4.7211914,1.40625   c-1.0791016,1.3007813-1.2392578,3.3242188-0.4287109,5.4130859c0.1790352,0.4612408,0.878334,0.1921062,0.6992188-0.2714844   c-0.7104492-1.8310547-0.5961914-3.5742188,0.3066406-4.6630859c0.840332-1.0126953,2.4428711-1.4755859,3.9897461-1.1503906   c1.2436523,0.2607422,2.4843712,0.9580078,3.9047813,2.1933594c0.3758316,0.3251705,0.8660202-0.241642,0.4921875-0.5664063   C65.2810516,25.6620026,63.8000984,24.5116119,61.9954109,24.1327057z"/><path d="M110.7629852,23.5750885c1.3183594-1.3457031,2.4995117-2.1396484,3.7177734-2.4980469   c1.515625-0.4433594,3.1499023-0.1132813,4.0688477,0.8300781c0.9868164,1.0136719,1.2397461,2.7421875,0.6762695,4.6240234   c-0.1416473,0.4752922,0.5763321,0.6905403,0.71875,0.2148438c0.6420898-2.1464844,0.3217773-4.1513672-0.8579102-5.3623047   c-1.125-1.1542969-3.0151367-1.5585938-4.8178711-1.0253906c-1.7680664,0.5195313-3.1533203,1.7851563-4.0419922,2.6914063   C109.8819427,23.4039326,110.4115143,23.9289227,110.7629852,23.5750885z"/><path d="M93.7327118,37.1668854c0.7286987-1.003418,1.7258301-1.7993164,2.8444824-2.3647461   c-1.1772232,1.6136169-0.2207489,4.4524269,1.3369751,4.2701416c1.9130707-0.2740288,2.0321198-4.2418556,0.1329956-4.8497314   c1.1967773-0.3474121,2.4614258-0.4458008,3.6728516-0.2138672c0.4770279,0.1011505,0.6360016-0.6412506,0.1416016-0.7363281   c-3.2724609-0.6259766-6.7802734,0.7617188-8.7353516,3.453125C92.8346939,37.1266899,93.4406204,37.5680237,93.7327118,37.1668854   z M97.4854584,36.9386139c-0.7664413,0.092823-0.8759384-1.5919762-0.1266479-1.6855469   c0.3215332-0.0389404,0.6040649,0.3117676,0.6430054,0.7794189C98.0310516,36.5001373,97.797226,36.909317,97.4854584,36.9386139z" /><path d="M72.8166962,33.7752838c1.0454712-0.1590576,2.1096191-0.1157227,3.138855,0.0961914   c-1.4753113,1.115799-1.1431808,4.3942413,0.6116943,4.6453857c1.3633575,0.145195,2.3884354-2.1710052,1.47052-3.9432373   c1.803833,0.8564415,1.9862747,1.4711914,2.3551025,1.4711914c0.3426819,0,0.506218-0.4261932,0.2495117-0.6552734   c-2.1391602-1.9042969-5.105957-2.7841797-7.9379883-2.3564453C72.2199326,33.1070938,72.3180466,33.8409882,72.8166962,33.7752838   z M76.9667206,36.383194c-0.3215332-0.0292969-0.5553589-0.4383545-0.5261841-0.9060059   c0.0195313-0.4580078,0.302063-0.8184814,0.6235962-0.779541c0.3117676,0.0292969,0.5455933,0.4384766,0.526123,0.9060059   C77.5610199,36.0616608,77.2784882,36.4222565,76.9667206,36.383194z"/><path d="M98.6079559,122.9194489c2.0588989,0.5961914,4.0723267-0.1097412,4.4970703-1.5766602   c0.4248047-1.4669189-0.8999023-3.1395264-2.9588013-3.7357178s-4.0723267,0.1098633-4.4970703,1.5767822   C95.22435,120.6507721,96.549057,122.3233795,98.6079559,122.9194489z"/><path d="M71.7204437,90.2503815c0-0.7011337,0.289856-0.9182053,0.289856-1.3300781   c0.107605-0.9408798-1.0725555-1.5646973-1.7905273-0.7076416c-0.1875305,0.2188644-0.4385529,1.1975861-0.477417,1.5090332   c-0.021698,0.1516113,0.0646744,0.3070068-0.0682373,0.3070068c-1.4591064,0.1360245-3.1224136,1.0701828-3.546875,2.5067139   c-1.591568,4.3746796,2.9632416,5.8903198,4.5103149,9.114624c0.196167,0.4345703,0.2387695,0.8269043,0.1193848,1.1850586   c-0.1619873,0.5627441-0.4603882,0.9038086-0.9037476,1.0231934c-1.0751343,0.2894669-2.4446564-0.0412827-3.3764038-0.6906738   c-0.8870087-0.6142654-1.4731827-2.1626053-0.6394653-2.7880859c0.9785538-0.8404694-0.1474609-2.226738-1.1851196-1.6455078   c-0.4450989,0.2053909-1.0943527,1.3704224-1.1936607,1.8671875c-0.3131828,1.7038269,0.7533379,4.0586548,3.3336754,4.9707031   c-0.0784912,0.3936081-0.2217941,2.2332611-0.0511475,2.6772461c0.52668,1.2108231,2.1844101,0.5752258,1.9440308-0.579834   c-0.0350952-0.2446671,0.0358429-1.4331207,0.0767212-1.6795654c3.423912,0.1319809,5.0118713-2.9543381,3.4871826-5.5932617   c-1.8805695-3.2547607-4.9561996-4.2149277-4.3312988-6.9829102c0.3999481-1.5990524,3.1814728-1.8623581,3.9050293-0.6138916   c0.2271271,0.413147,0.079483,1.1858368-0.0426636,1.6030273c-0.1045685,0.2301254-0.5209961,0.5121384-0.4433594,1.0571289   c0.1058807,0.7749329,1.1147919,1.3303223,1.8416748,0.4519043c0.5456467-0.6590652,0.767334-1.6725922,0.767334-2.5151367   c0.0341797-0.7163086-0.1619873-1.3557129-0.5968018-1.9099121S72.3683929,90.5232086,71.7204437,90.2503815z"/></g></svg>