<svg xmlns="http://www.w3.org/2000/svg" xmlns:xlink="http://www.w3.org/1999/xlink" version="1.1" x="0px" y="0px" viewBox="0 0 72 90" style="enable-background:new 0 0 72 72;" xml:space="preserve" fill="#610BEF"><style type="text/css">
	.st0{fill-rule:evenodd;clip-rule:evenodd;}
</style><path d="M49.08,56.92l6.2-6.2c-1.1-1.44-1.19-4.93-1.36-8.67c-0.08-3.82-0.17-7.99-1.36-9.26c-1.36-1.44-5.69-2.8-7.82-3.65v5.27  c1.44,1.36,2.8,2.89,4.08,4.59c0.59,0.76-0.59,1.7-1.19,0.85c-1.02-1.27-2.12-2.63-3.23-3.74c-1.27-1.27-3.91-3.99-5.95-3.23  c-1.02,0.25-1.36,1.27-0.59,2.04c4.84,5.01,5.61,8.67,6.37,12.15C44.83,50.13,45.43,53.1,49.08,56.92L49.08,56.92z M20.37,33.9  c-0.17-1.1,1.27-1.02,1.44-0.17c0.17,1.53,3.91,1.36,3.91-0.08c0-2.04-5.35-0.25-5.35-3.91c0-1.44,1.36-2.29,2.63-2.55v-1.27  c0-0.93,1.44-0.93,1.44,0v1.27c1.19,0.17,2.55,1.02,2.72,2.29c0.08,0.93-1.36,1.1-1.44,0.17c-0.17-1.44-3.91-1.36-3.91,0.08  c0,2.04,5.35,0.25,5.35,3.91c0,1.44-1.36,2.38-2.72,2.55v1.27c0,0.42-0.25,0.68-0.68,0.68c-0.42,0-0.76-0.25-0.76-0.68V36.2  C21.81,36.03,20.54,35.18,20.37,33.9L20.37,33.9z M44.07,20.99c0.85,0,1.53-0.68,1.53-1.44c0-0.85-0.68-1.53-1.53-1.53  c-0.85,0-1.53,0.68-1.53,1.53C42.54,20.31,43.22,20.99,44.07,20.99L44.07,20.99z M34.13,17.34c0.51,0,0.76,0.42,0.76,0.85l2.72-2.12  l-2.72-2.21c0,0.42-0.25,0.85-0.76,0.85h-5.52c-1.7,0-1.7,2.63,0,2.63H34.13z M33.37,18.87h-4.76c-3.74,0-3.74-5.69,0-5.69h4.76  v-0.93c0-0.59,0.76-0.93,1.27-0.51l4.59,3.74c0.34,0.25,0.34,0.85,0,1.19l-4.59,3.65c-0.42,0.51-1.27,0.17-1.27-0.51V18.87z   M20.71,45.12c0.76,0.68,1.1,1.61,0.93,2.63H42.8c-1.02-5.18-2.21-7.9-6.03-11.81c-2.63-2.72,1.27-7.14,6.46-2.89V22.43  c-1.19-0.34-2.12-1.53-2.12-2.89c0-1.44,0.93-2.55,2.12-2.89v-4.08c0-1.27-1.02-2.38-2.29-2.38H23.09c-1.36,0-2.38,1.1-2.38,2.38  v7.39c0.93-0.25,1.95-0.34,3.06-0.34c6.71,0,12.06,5.35,12.06,12.06s-5.35,12.15-12.06,12.15c-1.1,0-2.12-0.17-3.06-0.42V45.12z   M21.05,49.19c-0.08,0.17-0.25,0.25-0.34,0.42v1.44c0,1.27,1.02,2.38,2.38,2.38h17.84c1.27,0,2.29-1.1,2.29-2.38l-0.08-1.87H21.05z   M13.4,48.68h5.44c1.78,0,1.78-2.63,0-2.63H13.4c-0.51,0-0.76-0.42-0.76-0.85l-2.72,2.12l2.72,2.21  C12.64,49.11,12.81,48.68,13.4,48.68L13.4,48.68z M23.77,22.69c4.93,0,9,4.08,9,9c0,5.01-4.08,9-9,9c-5.01,0-9-3.99-9-9  C14.76,26.77,18.75,22.69,23.77,22.69L23.77,22.69z M23.77,24.22c-4.16,0-7.48,3.31-7.48,7.48s3.31,7.48,7.48,7.48  s7.48-3.31,7.48-7.48S27.93,24.22,23.77,24.22L23.77,24.22z M23.77,21.08c-5.86,0-10.62,4.76-10.62,10.62  c0,5.86,4.76,10.62,10.62,10.62c5.86,0,10.62-4.76,10.62-10.62C34.39,25.83,29.63,21.08,23.77,21.08L23.77,21.08z M31.5,52  c-0.42,0-0.76-0.34-0.76-0.76c0-0.34,0.34-0.68,0.76-0.68h1.1c0.42,0,0.76,0.34,0.76,0.68c0,0.42-0.34,0.76-0.76,0.76H31.5z   M50.87,19.55c0-1.95-0.76-3.4-2.04-4.84c-0.68-0.68-1.78,0.42-1.02,1.1c1.02,1.02,1.53,2.38,1.53,3.74c0,1.27-0.51,2.63-1.53,3.65  c-0.76,0.76,0.34,1.78,1.02,1.1C50.1,22.94,50.87,21.42,50.87,19.55L50.87,19.55z M54.52,19.55c0-2.72-1.02-5.44-3.06-7.48  c-0.68-0.68-1.78,0.42-1.02,1.1c1.7,1.78,2.63,4.08,2.63,6.37c0,2.29-0.93,4.59-2.63,6.29c-0.76,0.76,0.34,1.78,1.02,1.1  C53.5,24.9,54.52,22.18,54.52,19.55L54.52,19.55z M58.17,19.55c0-3.65-1.36-7.22-4.16-10.02c-0.68-0.68-1.7,0.34-1.02,1.1  c2.46,2.46,3.65,5.69,3.65,8.92s-1.19,6.46-3.65,8.92c-0.68,0.68,0.34,1.7,1.02,1.02C56.81,26.77,58.17,23.11,58.17,19.55  L58.17,19.55z M59.02,52.76l-1.87-1.78l-8.07,7.99l1.27,1.36L59.02,52.76z M51.46,61.34l1.27,1.36l9.34-6.88l-2.04-2.04L51.46,61.34  z"/></svg>